<svg width="0" height="0">
    <symbol xmlns="http://www.w3.org/2000/svg" id="vk" viewBox="0 0 36 32">
       <path fill-rule="evenodd" clip-rule="evenodd" d="M2.67436 2.24942C0.199997 4.49884 0.199997 8.1192 0.199997 15.36V16.64C0.199997 23.8808 0.199997 27.5011 2.67436 29.7506C5.14872 32 9.13112 32 17.096 32H18.504C26.4689 32 30.4512 32 32.9257 29.7506C35.4 27.5011 35.4 23.8808 35.4 16.64V15.36C35.4 8.1192 35.4 4.49884 32.9257 2.24942C30.4512 0 26.4689 0 18.504 0H17.096C9.13112 0 5.14872 0 2.67436 2.24942ZM6.14008 9.7334C6.33075 18.0534 10.9067 23.0534 18.9294 23.0534H19.3841V18.2934C22.3321 18.5601 24.5613 20.5201 25.456 23.0534H29.6214C28.4774 19.2667 25.4706 17.1734 23.5933 16.3734C25.4706 15.3867 28.1106 12.9867 28.7413 9.7334H24.9572C24.1359 12.3734 21.7015 14.7734 19.3841 15.0001V9.7334H15.6V18.9601C13.2533 18.4267 10.2907 15.8401 10.1587 9.7334H6.14008Z" fill="#525252"/>
    </symbol>
</svg>