<svg width="77" height="77" viewBox="0 0 77 77" fill="none" xmlns="http://www.w3.org/2000/svg">
<path d="M33.7807 0.173897C28.6391 0.993576 24.8636 2.18583 20.8646 4.24744C10.4572 9.6126 3.22909 19.1755 0.695538 30.8994C-0.0993007 34.5755 -0.0993007 42.201 0.720377 45.9516C2.95586 56.4336 8.94199 65.1768 17.7597 70.84C30.353 78.9374 46.6471 78.9374 59.2404 70.84C68.0581 65.1768 74.0442 56.4336 76.2797 45.9516C77.0994 42.201 77.0994 34.5755 76.3046 30.8994C72.8768 15.0771 60.6065 3.15454 45.0078 0.471962C42.3749 0.0248642 35.7678 -0.14901 33.7807 0.173897ZM43.8404 5.34035C58.3462 7.72486 69.4242 19.0016 71.6846 33.6565C72.1565 36.662 72.0323 42.1762 71.4362 44.9581C69.9707 51.7391 66.9652 57.2781 62.1217 62.0968C57.2036 66.99 51.8384 69.8962 45.132 71.312C41.7788 72.0323 35.6933 72.1068 32.4642 71.461C27.8194 70.5171 23.2242 68.6045 19.3742 65.9965C18.3559 65.2762 16.3191 63.5374 14.8784 62.0968C10.0349 57.2781 7.02941 51.7391 5.56393 44.9581C4.9678 42.1762 4.8436 36.662 5.31554 33.6565C7.55102 19.101 18.6539 7.7497 33.0107 5.34035C35.6436 4.89325 41.1578 4.89325 43.8404 5.34035Z" fill="#E6B361"/>
<path d="M37.2829 9.78663C36.3639 10.2834 36.041 11.1528 36.0161 12.9908C36.0161 14.8786 36.4384 15.9218 37.4319 16.3689C38.2268 16.7415 38.8974 16.7166 39.7171 16.2944C40.6609 15.7976 40.9839 14.9282 40.9839 12.7673C40.9839 11.0286 40.9342 10.8299 40.2635 10.1592C39.4439 9.36437 38.3261 9.21534 37.2829 9.78663Z" fill="#E6B361"/>
<path d="M55.0177 18.7282C54.6203 18.9269 51.4906 21.8827 48.0877 25.2856L41.9029 31.4953L40.9094 31.1475C39.6923 30.7253 37.1836 30.7253 36.0161 31.1724L35.1468 31.4953L32.0171 28.4153C29.1358 25.5837 28.8129 25.3353 27.9684 25.3353C26.7761 25.3353 26.18 25.6582 25.7081 26.5772C24.9381 28.0675 25.1119 28.4153 28.4403 31.7685L31.5203 34.8982L31.1726 36.1153C30.3777 38.7482 30.9739 41.4804 32.8119 43.5421C35.7926 46.945 41.2074 46.945 44.1881 43.5421C46.0261 41.4804 46.6223 38.7482 45.8274 36.1153L45.4548 34.8982L51.9129 28.4401C58.2468 22.0814 58.371 21.9324 58.371 20.9388C58.371 20.1937 58.1971 19.7714 57.7252 19.2746C57.3526 18.9269 56.9303 18.6288 56.7316 18.6288C56.5577 18.6288 56.2845 18.5792 56.0858 18.5046C55.9119 18.455 55.44 18.5543 55.0177 18.7282ZM40.3877 36.6121C41.3813 37.6056 41.5055 38.6737 40.7603 39.8908C39.3445 42.2008 35.7677 41.0582 35.7677 38.2763C35.7677 37.0095 37.109 35.7675 38.5 35.7675C39.3445 35.7675 39.6923 35.9166 40.3877 36.6121Z" fill="#E6B361"/>
<path d="M10.308 36.6124C9.16539 37.755 9.23991 39.3943 10.4818 40.3134C11.2022 40.8598 13.1644 41.1331 14.4809 40.8847C16.5673 40.4872 17.3622 38.2021 15.9215 36.7366C15.226 36.0411 15.077 36.0163 13.0402 36.0163C11.1028 36.0163 10.8544 36.066 10.308 36.6124Z" fill="#E6B361"/>
<path d="M61.0784 36.7365C60.5567 37.2829 60.358 37.7052 60.358 38.3758C60.358 40.3381 61.4758 41.0832 64.2826 40.9342C65.9964 40.8597 66.1703 40.7852 66.8409 40.04C67.6109 39.1706 67.7351 38.4006 67.2632 37.3823C66.8161 36.3887 65.8474 36.0161 63.7113 36.0161C61.9477 36.0161 61.749 36.0658 61.0784 36.7365Z" fill="#E6B361"/>
<path d="M37.8293 60.2833C37.5313 60.333 36.9848 60.7304 36.6371 61.1279C36.0906 61.7985 36.0161 62.1214 36.0161 63.8601C36.0161 65.6734 36.0658 65.8721 36.7364 66.6172C37.5561 67.5363 38.7732 67.6853 39.8413 66.965C40.7106 66.4185 40.9839 65.6485 40.9839 63.8353C40.9839 63.0404 40.8845 62.0966 40.7355 61.7488C40.3629 60.7553 38.9968 60.0598 37.8293 60.2833Z" fill="#E6B361"/>
</svg>
