<svg width="126" height="77" viewBox="0 0 126 77" fill="none" xmlns="http://www.w3.org/2000/svg">
<path d="M56.4216 0.656395C53.7902 1.36328 51.3107 3.23148 49.9698 5.5541C49.3119 6.66492 48.9324 6.99312 47.2119 7.85148C44.8336 9.08852 43.0878 10.6285 42.1264 12.421C41.7469 13.1531 41.3927 13.8095 41.3421 13.8348C41.3168 13.8852 40.6842 13.4561 39.9252 12.8502C38.2806 11.5626 34.1059 9.54295 31.8794 8.98754C30.9686 8.76033 29.0963 8.50787 27.7047 8.40688C16.5722 7.77573 6.57821 15.7282 4.65531 26.7607C4.3264 28.7046 4.2758 30.7243 4.3517 38.4748C4.4529 47.1846 4.50351 47.9925 5.00953 49.8607C5.61676 52.0066 6.90712 54.9098 7.91917 56.4246L8.5517 57.3587L6.98302 58.8987C2.90953 62.9128 0.632424 68.1134 0.328809 74.1472L0.177002 77H62.9999H125.823L125.671 74.1472C125.216 65.5131 120.636 58.4443 112.97 54.6069C112.135 54.1777 110.946 53.6728 110.338 53.4961C109.453 53.2436 109.149 52.9911 108.871 52.2843C108.491 51.4259 108.517 51.3754 109.073 51.022C110.288 50.2646 111.907 48.3711 112.616 46.8564C113.02 46.0233 113.349 45.1902 113.349 45.0387C113.349 44.8872 113.931 44.6852 114.64 44.5843C116.082 44.3823 117.903 43.5492 119.093 42.5646C119.497 42.2111 120.231 41.2266 120.712 40.343C121.471 38.9292 121.547 38.5252 121.572 36.7328C121.572 34.3344 120.838 32.4915 119.295 30.9262L118.334 29.9669L119.067 29.462C120.307 28.6036 122.534 26.1548 123.419 24.6652C125.418 21.3328 126.228 16.8643 125.418 13.7085C124.482 10.1488 122.205 7.22033 119.118 5.70557C115.778 4.0141 112.767 3.88786 109.934 5.27639L108.34 6.05901L107.075 5.57935C103.659 4.24131 99.13 3.96361 95.5119 4.92295C93.2095 5.50361 90.1481 7.11934 88.2252 8.76032C87.2637 9.56819 86.024 10.4771 85.442 10.7548L84.4047 11.3102L83.418 9.26524C81.3939 5.12492 76.8143 1.59049 72.2348 0.631149C69.73 0.100983 58.3951 0.126228 56.4216 0.656395ZM71.6782 4.67049C76.3336 5.88229 79.6734 9.24 80.8878 13.961C81.3179 15.6272 81.2421 18.48 80.7107 20.222L80.4577 21.1561L79.2686 20.8026C78.636 20.6007 77.8517 20.4492 77.5481 20.4492C77.1433 20.4492 76.8649 20.121 76.4095 19.1364C75.6758 17.5207 74.1324 15.9554 72.4878 15.1223C71.2228 14.5164 71.2228 14.5164 62.9999 14.5164C55.1059 14.5164 54.7264 14.5416 53.5878 15.0718C52.0192 15.7787 50.324 17.5207 49.5902 19.1364C49.1348 20.121 48.8565 20.4492 48.4517 20.4492C48.1481 20.4492 47.3637 20.6007 46.7312 20.8026L45.5421 21.1561L45.289 20.222C44.4288 17.2934 44.8589 14.8951 46.5288 13.2036C47.0854 12.6734 48.6288 11.6889 50.0457 11.0072C52.3987 9.8459 52.6011 9.69442 52.8794 8.76032C53.3854 7.06885 55.4854 5.12492 57.4336 4.51901C57.7878 4.41803 60.7987 4.31705 64.1384 4.31705C68.7686 4.2918 70.5649 4.39278 71.6782 4.67049ZM104.696 8.9623C106.037 9.36623 106.037 9.36623 105.835 10.1741C105.734 10.6285 105.632 11.7898 105.658 12.7492C105.658 14.2639 105.81 14.7689 106.518 16.1069C106.973 16.9905 107.707 17.9751 108.112 18.3285C109.25 19.2879 111.072 20.121 112.413 20.3229L113.602 20.4997V18.5052V16.5108L112.489 16.2079C109.681 15.4757 108.643 11.9413 110.591 9.71967C112.059 8.05344 114.69 7.92721 117.448 9.39147C119.928 10.7043 121.37 12.9511 121.623 15.8544C122.078 21.3328 118.055 26.6849 112.413 28.1492C105.683 29.8911 98.6746 25.1702 97.5613 18.1518L97.3083 16.4098H95.2842H93.2854L93.4372 17.7226C93.5131 18.4548 93.6649 19.4393 93.7661 19.8685C93.8926 20.5249 93.842 20.7016 93.5384 20.7016C92.6529 20.7016 90.2493 21.7872 89.0601 22.7466C87.618 23.8826 86.7324 25.0944 85.8975 27.1393L85.3155 28.5531L85.1384 27.3666C85.0625 26.7102 84.7336 25.7003 84.4553 25.1197L83.924 24.0341L84.5059 21.7115C84.8348 20.4239 85.1637 18.4548 85.2396 17.3187L85.3914 15.2738L86.9348 14.6426C87.9722 14.2134 89.0601 13.5066 90.1228 12.4967C93.2095 9.59344 96.8023 8.25541 100.952 8.43213C102.267 8.50787 103.963 8.73508 104.696 8.9623ZM31.93 13.2036C34.7384 14.1125 37.0662 15.501 39.1156 17.5207C40.9119 19.3131 40.9372 19.3384 41.4939 21.661L42.0758 24.0341L41.4686 25.3216C40.9878 26.3062 40.8613 27.0131 40.8613 28.5026C40.8613 31.2544 41.8734 33.2741 44.1505 35.0413L44.8336 35.5967L44.7324 41.58C44.6312 46.9321 44.5553 47.7905 44.0493 49.3557C43.1637 52.0318 41.5192 55.1118 41.0131 54.9351C40.7854 54.8593 39.571 54.3797 38.3059 53.8748C36.0541 52.9659 35.9782 52.8902 35.3457 51.6279L34.7131 50.3403L36.3071 48.8003C39.0143 46.1748 40.4312 43.12 40.6589 39.2574C40.8866 35.4957 40.1023 33.0721 37.9011 30.6738C36.383 29.0075 34.6878 28.1492 31.7276 27.4928C27.6541 26.6092 24.7192 24.7915 22.5686 21.7872C21.2276 19.9443 21.0758 19.919 18.5963 21.0803C15.8131 22.3931 13.5613 25.1197 12.777 28.1492C12.3216 29.9416 12.2457 38.9039 12.6758 41.3023C13.1312 43.8269 14.6999 46.7049 16.6734 48.6489L18.3939 50.3656L17.7613 51.6531C17.1541 52.8902 17.0529 52.9659 14.8264 53.8748C13.5613 54.3797 12.3469 54.8593 12.1192 54.9351C11.6131 55.1118 9.91796 51.9561 9.05772 49.2295C8.4758 47.3866 8.4758 47.1341 8.4758 37.2377V27.1393L9.15893 25.1197C10.171 22.1911 11.4866 20.0957 13.789 17.7984C16.6228 14.9708 19.7601 13.2793 23.3782 12.6229C25.63 12.219 29.7541 12.4967 31.93 13.2036ZM71.2481 19.0859C71.6276 19.3636 72.1842 19.919 72.4625 20.2977C72.9686 20.9541 72.9939 21.3833 73.0698 28.0987C73.1204 33.2236 73.0698 35.5462 72.842 36.3541C72.4119 37.8436 70.3878 39.9138 68.9204 40.343C67.5035 40.7469 58.4963 40.7469 57.0794 40.343C55.6878 39.939 53.5878 37.8436 53.183 36.4551C52.7782 35.117 52.7529 22.0649 53.1577 21.0298C53.3095 20.6511 53.6637 20.0452 53.9674 19.717C55.1059 18.48 55.536 18.4295 63.3035 18.5052C70.1854 18.5557 70.5902 18.581 71.2481 19.0859ZM48.8312 28.5279C48.8312 32.9964 48.8565 32.8954 47.2372 32.2138C44.0746 30.901 44.0493 26.2052 47.1866 24.842C48.8565 24.1098 48.8312 24.0593 48.8312 28.5279ZM79.4204 25.1954C80.6601 26.1043 81.0902 26.9626 81.0902 28.5279C81.0902 29.6387 80.9637 30.1941 80.5589 30.699C79.8505 31.6836 78.9649 32.2895 78.0035 32.4662L77.1686 32.6177V28.5279V24.4128L78.0035 24.5895C78.4336 24.6652 79.0914 24.943 79.4204 25.1954ZM96.777 26.2052C99.2059 29.462 103.279 31.8351 107.429 32.3905L109.554 32.6682V38.0961C109.554 41.58 109.453 43.8521 109.25 44.5338C108.846 45.9223 106.746 48.0177 105.354 48.4216C103.937 48.8256 94.93 48.8256 93.5131 48.4216C92.1216 48.0177 90.0216 45.9223 89.6167 44.5338C89.1866 43.0948 89.1866 30.1184 89.6167 28.6793C89.9963 27.3918 92.1216 25.2207 93.3613 24.8167C95.1577 24.2613 95.4107 24.3623 96.777 26.2052ZM23.9601 28.6793C25.883 29.9416 28.2866 30.9262 30.7409 31.4311C33.271 31.9361 34.6372 32.7187 35.624 34.2334C37.6734 37.3134 36.636 43.0695 33.4987 45.9223C32.8661 46.5282 31.6011 47.3613 30.6649 47.7905C29.1216 48.5226 28.7421 48.5984 26.5662 48.5984C24.3903 48.5984 24.0107 48.5226 22.4674 47.7905C20.1143 46.6797 18.6469 45.2659 17.5083 42.9685L16.5722 41.0498L16.4963 35.4957C16.4204 30.3203 16.4457 29.8154 16.9517 28.4774C17.3059 27.518 17.8372 26.7102 18.6216 26.0033L19.7601 24.9682L21.1517 26.3567C21.9107 27.1141 23.1758 28.1492 23.9601 28.6793ZM85.2649 36.6318V40.6964L84.4553 40.5449C82.7601 40.2167 81.4951 38.7777 81.2926 37.0105C81.1408 35.8239 81.1661 35.7987 82.7601 34.2082C85.2143 31.7341 85.2649 31.7593 85.2649 36.6318ZM115.854 33.2741C117.094 34.183 117.524 35.0413 117.524 36.6066C117.524 37.7174 117.397 38.2728 116.993 38.7777C116.284 39.7623 115.399 40.3682 114.437 40.5449L113.602 40.6964V36.6066V32.4915L114.437 32.6682C114.867 32.7439 115.525 33.0216 115.854 33.2741ZM50.7541 40.4187C51.4372 41.4033 52.1963 42.1607 53.3348 42.918C53.8409 43.2715 53.8661 43.3725 53.5878 44.2308C53.436 44.761 53.1324 45.2407 52.9047 45.3164C52.677 45.3921 51.589 45.9475 50.5011 46.5787L48.5023 47.7148L48.6794 46.5282C48.7553 45.897 48.8312 43.3725 48.8312 40.9236V36.4803L49.4384 37.9446C49.7927 38.7525 50.3746 39.8885 50.7541 40.4187ZM78.3071 40.6207C79.471 42.7413 81.6975 44.2561 84.2276 44.5843C84.936 44.6852 85.518 44.8872 85.518 45.0387C85.518 45.1902 85.8469 45.998 86.2517 46.8564C86.9601 48.3711 88.2758 49.9364 89.642 50.8957C90.3252 51.3754 90.3505 51.4259 90.0216 52.2085C89.7433 52.9154 89.3637 53.1679 87.5421 53.9252C84.5312 55.1623 84.683 55.1623 84.2023 54.3292C82.7348 51.8551 78.1047 47.8915 74.5878 46.0738C72.9433 45.2154 72.6143 44.963 72.3866 44.1803C72.1336 43.3725 72.1589 43.2715 72.6649 42.918C74.3854 41.8325 76.8396 38.3485 76.9408 36.859C76.9661 36.657 77.118 37.1115 77.2698 37.8689C77.4469 38.6515 77.9023 39.8633 78.3071 40.6207ZM68.4143 45.0892C68.4902 45.3164 68.5661 45.5184 68.5661 45.5941C68.5661 45.6446 67.3264 46.3262 65.783 47.0836L62.9999 48.4721L60.2168 47.0836C58.6987 46.3262 57.4336 45.6446 57.4336 45.5941C57.4336 45.5184 57.5095 45.3164 57.5854 45.0892C57.7119 44.7357 58.4457 44.6852 62.9999 44.6852C67.5541 44.6852 68.2878 44.7357 68.4143 45.0892ZM56.9023 49.9616L58.7746 50.921L56.624 52.2085C55.4348 52.9154 54.3216 53.5718 54.0939 53.6475C53.8155 53.7485 53.5372 53.3193 53.0059 52.0066C52.6264 51.0472 52.3481 50.1889 52.3987 50.1384C52.6517 49.9111 54.5493 49.0023 54.777 49.0023C54.9288 49.0023 55.8649 49.4315 56.9023 49.9616ZM72.4878 49.5325C73.1204 49.8354 73.6264 50.1889 73.6264 50.2898C73.6264 50.517 72.3866 53.5718 72.2095 53.7485C72.1589 53.799 71.0204 53.1931 69.6794 52.3852L67.2252 50.921L69.0975 49.9616C70.1348 49.4315 71.0457 49.0023 71.1469 48.977C71.2481 48.977 71.8553 49.2295 72.4878 49.5325ZM24.7445 52.5872C26.4649 52.8397 29.4758 52.6377 30.6143 52.158C30.918 52.0318 31.2216 52.4105 31.8288 53.6475C32.5878 55.2128 32.6384 55.4652 32.6384 58.0656V60.8426H26.5662H20.4939V58.0656C20.4939 55.4652 20.5445 55.2128 21.3035 53.6475C21.9107 52.4105 22.2143 52.0318 22.518 52.158C22.7204 52.2338 23.7324 52.4357 24.7445 52.5872ZM50.324 55.9954C51.083 57.7626 51.7915 59.3026 51.8927 59.4289C51.9939 59.5298 54.4734 58.1918 57.383 56.4498C60.318 54.7079 62.8228 53.2689 62.9999 53.2689C63.177 53.2689 65.6818 54.7079 68.6167 56.4498C71.5264 58.1918 74.0059 59.5298 74.1071 59.4289C74.2083 59.3026 74.9167 57.7879 75.6505 56.0459C76.4095 54.3039 77.042 52.8397 77.0927 52.7892C77.2951 52.5367 80.3059 55.7682 81.3939 57.4092C83.8228 61.0193 84.9613 64.7305 85.189 69.6282L85.3408 72.9607H62.9999H40.6589L40.8107 69.6282C41.0131 65.0334 41.8987 61.903 44.0746 58.217C44.9854 56.677 48.3758 52.7639 48.8059 52.7639C48.8818 52.7639 49.5649 54.2282 50.324 55.9954ZM104.949 53.5213C105.202 54.203 105.152 54.3292 104.418 54.9351C101.66 57.2577 97.2071 57.2577 94.4493 54.9351C93.7155 54.3292 93.6649 54.203 93.9179 53.5213L94.171 52.7639H99.4336H104.696L104.949 53.5213ZM92.1975 58.2928C94.677 60.161 96.2204 60.6911 99.4336 60.6911C102.647 60.6911 104.19 60.161 106.67 58.2928L108.314 57.0557L110.187 57.8384C114.083 59.4541 117.549 62.5593 119.396 66.1443C120.484 68.2397 121.446 71.0925 121.446 72.2285V72.9607H105.405H89.389L89.2372 69.4767C89.0854 65.8413 88.377 62.3574 87.3143 59.9338C87.0107 59.2774 86.8083 58.6967 86.8842 58.6462C86.9601 58.5705 90.3505 57.081 90.5023 57.0557C90.5276 57.0557 91.2866 57.6111 92.1975 58.2928ZM17.1035 64.0236C17.7107 66.523 18.824 68.997 20.2156 71.0925L21.4553 72.9607H13.0047H4.55411V72.2285C4.55411 71.8246 4.80712 70.7138 5.08543 69.7797C6.65411 64.7305 10.0192 60.6911 14.5481 58.419L16.3192 57.5354L16.4963 59.9338C16.5975 61.2466 16.8505 63.0895 17.1035 64.0236ZM38.0782 58.1161C38.9384 58.52 39.1915 58.7725 39.0649 59.0754C37.6481 62.1807 36.6866 66.8007 36.6866 70.4613V72.9607H34.1565H31.6264L32.4866 71.7489C35.0421 68.2144 36.6866 63.241 36.6866 58.9997C36.6866 58.217 36.7372 57.5607 36.8131 57.5607C36.8637 57.5607 37.4457 57.8131 38.0782 58.1161ZM31.0951 66.0685C30.4119 67.6338 28.5903 70.3603 27.477 71.4207L26.5662 72.3043L25.7818 71.5469C24.618 70.4613 22.8469 67.9115 22.1384 66.2957L21.5059 64.882H26.5662H31.6011L31.0951 66.0685Z" fill="#E6B361"/>
</svg>
