<svg width="86" height="77" viewBox="0 0 86 77" fill="none" xmlns="http://www.w3.org/2000/svg">
<path d="M27.3957 0.271996C27.043 0.526962 27.0094 0.64595 27.0934 1.35986L27.1942 2.15875L13.7902 13.4793C4.53517 21.2983 0.319151 24.9698 0.167979 25.3267C-0.117568 26.0406 0.0839943 26.9245 0.655088 27.4005C0.907041 27.6214 3.32579 29.2872 6.01329 31.106L10.9012 34.4206L13.6559 40.5398C16.0074 45.7581 16.5113 46.71 16.9649 47.0499C17.6703 47.5259 18.275 47.5259 18.9973 47.0329C19.3164 46.812 25.4137 41.6786 32.5524 35.6274C39.7078 29.5762 45.6371 24.5958 45.7379 24.5618C45.8555 24.5278 47.4848 26.3806 49.3828 28.6753L52.8094 32.8398L52.2719 33.3327C51.5496 33.9786 51.0625 34.8285 51.0625 35.4064C51.0625 36.1713 51.4656 36.9192 52.5742 38.2621C53.1621 38.959 53.7332 39.6389 53.8676 39.7919C54.0524 40.0298 54.002 40.2508 53.5317 41.3217C53.2293 42.0186 51.9359 45.1802 50.6594 48.3587L48.3414 54.138L36.3316 63.4528C29.0754 69.0961 24.2043 72.9885 24.0027 73.3115C23.3477 74.4334 23.7676 75.9802 24.893 76.6091C25.4137 76.898 26.2703 76.915 38.9688 76.915C46.4098 76.915 52.675 76.864 52.9102 76.7961C53.2797 76.6941 59.6961 70.3369 60.5863 69.215C60.8719 68.8411 61.0902 68.8071 64.9199 68.5181C70.4125 68.0932 71.0004 67.8552 74.259 64.8806C77.0977 62.2969 78.4246 61.1921 78.7102 61.1921C79.2981 61.1921 80.3563 60.4102 82.6406 58.2515C85.261 55.8038 85.7649 55.0729 85.9496 53.5601C86.1512 51.8093 85.0594 49.8206 83.4637 49.0897L82.6238 48.6987L82.7414 47.8318C83.027 45.4861 81.3641 43.2594 79.0629 42.8685C78.3574 42.7325 78.3574 42.7325 78.2567 41.8656C78.1223 40.8117 77.4672 39.6049 76.7113 39.027C76.0227 38.5 75.0485 38.0751 74.5277 38.0751C74.1582 38.0751 74.1078 37.9901 74.0238 37.1572C73.7047 33.9956 70.4629 32.1429 67.6578 33.5367C67.1539 33.7916 66.5828 34.1656 66.3645 34.4036L65.9781 34.8115L65.1215 34.3696C64.3992 33.9786 64.0297 33.9106 62.7363 33.8766L61.2246 33.8426L59.9649 32.3128C58.0668 30.0011 56.9582 29.6102 55.3961 30.698C55.0434 30.953 54.7074 31.106 54.6402 31.038C54.5731 30.987 48.7781 23.9839 41.7402 15.502C29.6969 0.968903 28.9242 0.085022 28.3699 0.0340271C28.034 3.05176e-05 27.6309 0.10202 27.3957 0.271996ZM36.5332 13.1903C40.6988 18.2047 44.1086 22.3521 44.1254 22.4201C44.159 22.5561 18.4766 44.2793 18.275 44.2793C18.191 44.2793 16.9984 41.7466 15.6043 38.67C14.2102 35.5764 12.984 32.9587 12.8832 32.8398C12.7824 32.7038 10.5149 31.123 7.84415 29.2872C5.17345 27.4685 3.05704 25.9047 3.14103 25.8197C3.51056 25.4457 28.8235 4.0965 28.8906 4.0795C28.941 4.0795 32.3844 8.17597 36.5332 13.1903ZM58.0164 33.9446C58.5371 34.5735 58.9402 35.1345 58.9235 35.2025C58.8227 35.4234 55.9672 38.0751 55.8328 38.0581C55.6481 38.0411 53.75 35.7634 53.75 35.5594C53.75 35.3894 56.7734 32.8058 56.975 32.8058C57.0254 32.8058 57.5125 33.3157 58.0164 33.9446ZM70.2949 35.7634C70.9332 36.0354 71.5547 36.9192 71.5547 37.5312C71.5547 38.1091 71.0676 39.078 70.6813 39.2819C70.3789 39.4519 70.1774 39.2819 69.0184 38.0411L67.7082 36.6303L68.2289 36.1713C68.6824 35.7804 68.9176 35.6614 69.5895 35.5424C69.6567 35.5424 69.9758 35.6274 70.2949 35.7634ZM64.2481 36.8172C64.8863 37.2592 68.1449 40.6757 69.6735 42.5115C70.5973 43.6334 70.6309 44.2623 69.791 45.1972C69.0856 45.9791 68.3801 46.319 67.7586 46.166C67.4899 46.098 66.7508 45.4521 66.0285 44.6702C65.3231 43.9053 64.4496 43.1574 64.0801 42.9874C63.1731 42.5625 61.8125 42.5795 60.9727 43.0044C59.8641 43.5824 59.6961 43.8713 59.5785 45.4351C59.4945 46.625 59.377 47.0329 58.7891 48.1548C58.05 49.6336 57.9492 50.2795 58.4363 50.7214C58.7723 51.0274 59.5953 51.1294 59.9481 50.9084C60.0656 50.8404 60.4352 50.3645 60.7543 49.8546L61.3422 48.9197L61.7285 49.3106C62.0477 49.6676 71.8738 61.566 72.5625 62.4499C72.7977 62.7389 72.7305 62.8409 71.7395 63.7418C71.1516 64.2857 70.2613 64.9316 69.7406 65.1866C68.7496 65.6795 67.8762 65.7815 61.6445 66.2064L59.8809 66.3254L55.9504 70.3879L52.0367 74.4504H39.2543C29.025 74.4504 26.5055 74.3994 26.6734 74.2294C26.791 74.1274 32.1828 69.895 38.6664 64.8466L50.4578 55.6678L53.1621 48.9537C54.657 45.2652 56.0008 42.0016 56.152 41.7126C56.5047 41.0327 60.5359 37.1232 61.3086 36.7153C62.1988 36.2223 63.4418 36.2733 64.2481 36.8172ZM75.0149 40.9307C75.5356 41.3727 75.7539 41.8826 75.7539 42.6645C75.7539 43.2594 75.6531 43.4804 75.0485 44.1093C73.6879 45.5201 70.8156 48.1038 70.6141 48.1038C70.4965 48.1038 70.8156 47.7128 71.3027 47.2369C71.8067 46.761 72.361 46.047 72.5625 45.6561C73.016 44.7042 73.016 43.1744 72.5457 42.1546L72.2098 41.3897L72.6465 41.0157C73.2008 40.5228 74.4774 40.4888 75.0149 40.9307ZM64.5336 46.778C65.3399 47.6448 66.0117 48.4097 66.0117 48.4777C66.0117 48.7327 66.9524 49.6846 67.557 50.0755C67.9098 50.2965 68.5649 50.5685 69.0184 50.6704C69.8246 50.8404 69.8414 50.8404 69.9422 51.6393C70.1438 53.2031 71.5043 54.8859 72.8985 55.3278C73.1168 55.3958 73.1672 55.6678 73.1672 56.7387C73.1672 58.2855 73.5871 59.3393 74.5445 60.2062C75.0653 60.6651 75.1156 60.9031 74.6621 60.8691C74.427 60.8521 62.1484 45.7921 62.1484 45.5201C62.1484 45.2991 62.2828 45.2142 62.602 45.2142C62.9547 45.2142 63.3746 45.5541 64.5336 46.778ZM79.5836 45.8601C80.2723 46.506 80.4235 47.3899 80.0203 48.1718C79.6172 48.9027 75.3844 52.8292 74.8301 52.9652C73.3856 53.3221 71.9914 51.6903 72.5625 50.3135C72.7641 49.8206 76.6442 45.9791 77.3496 45.5881C77.5344 45.4861 78.0047 45.3841 78.3742 45.3841C78.9117 45.3841 79.1973 45.4861 79.5836 45.8601ZM82.3887 51.4353C82.943 51.7073 83.4805 52.5402 83.4805 53.1521C83.4805 53.781 82.8422 54.5969 80.961 56.3647C78.7606 58.4214 78.2231 58.8124 77.5512 58.8124C76.4258 58.8124 75.4516 57.6225 75.6531 56.5177C75.7371 56.0757 76.2578 55.4808 78.0719 53.747C79.3317 52.5402 80.5242 51.4693 80.709 51.3674C81.1793 51.0954 81.7336 51.1124 82.3887 51.4353Z" fill="#E6B361"/>
</svg>
