<svg width="76" height="74" viewBox="0 0 76 74" fill="none" xmlns="http://www.w3.org/2000/svg">
<path d="M46.0187 0.360483C45.8016 0.689721 45.6154 0.752433 44.4832 0.862179C43.7697 0.924891 42.2187 0.971924 41.0244 0.956246C39.0856 0.940568 38.791 0.971924 38.3412 1.25413C37.7052 1.64608 37.4726 2.21048 37.7207 2.74353C38.0465 3.4804 40.9779 5.23633 42.1877 5.42447C43.0097 5.56557 42.8701 5.64396 40.7607 6.34947C38.7289 7.00794 37.6742 7.54099 37.2399 8.08972C36.8832 8.56006 36.8056 9.28125 37.1158 9.53209C37.2089 9.61048 38.1085 9.82998 39.0856 10.0181C40.0628 10.2062 41.3191 10.4728 41.862 10.5982C42.4979 10.755 43.1183 10.802 43.5836 10.7393C44.2195 10.6452 44.3901 10.6923 44.6538 10.9588C45.0571 11.3664 45.3518 11.3821 45.755 10.9745C46.1273 10.5982 46.1273 10.5198 45.8326 9.06175C45.4914 7.43125 45.4603 7.36853 45.0726 7.36853C44.5918 7.36853 44.3901 7.63506 44.2661 8.41896C44.173 9.0304 44.1265 9.07743 43.5681 9.1715C43.2114 9.23421 42.3118 9.1715 41.4432 9.01472C40.6212 8.87362 39.6905 8.73252 39.3958 8.68548C38.6979 8.57574 38.915 8.46599 40.8693 7.91726C42.5444 7.44692 43.3665 7.08633 44.173 6.47489C45.2122 5.69099 44.5607 4.62489 42.7305 4.17023C41.5828 3.88803 39.2252 2.72786 39.1167 2.38294C39.0701 2.24184 39.5975 2.19481 41.3812 2.19481C43.413 2.19481 44.7624 2.06938 45.6154 1.80286C45.7861 1.74014 45.9256 1.89692 46.1118 2.35159C46.3599 2.99438 46.7477 3.16684 47.1199 2.79057C47.6007 2.30455 47.1044 0.15667 46.4995 0.0312462C46.3754 -0.000109673 46.1583 0.15667 46.0187 0.360483Z" fill="#E6B361"/>
<path d="M22.9086 7.52542C22.2261 8.325 21.4041 9.92415 21.4041 10.4415C21.4041 10.6297 21.5127 10.8335 21.6522 10.8805C22.0865 11.053 22.5363 10.5983 22.9551 9.56356C23.7151 7.65084 23.7306 7.69788 24.351 14.4237C24.5371 16.5559 24.9714 18.6254 25.3282 19.1742C25.7159 19.7856 26.4759 19.864 28.1355 19.472C28.911 19.2839 30.3535 19.0487 31.3306 18.9703C32.3078 18.8763 33.6416 18.7508 34.2776 18.6725C34.9135 18.5941 35.4563 18.5627 35.4873 18.5784C35.5029 18.5941 35.4253 18.8136 35.2857 19.0644C35.0065 19.6288 34.991 19.9737 35.2547 20.2089C35.5649 20.4597 37.1159 19.2996 37.6122 18.4373C38.2947 17.2614 38.031 16.6657 36.511 15.9758C34.8359 15.2076 34.3861 15.4742 35.5494 16.5559L36.2008 17.1674L34.6653 17.3555C33.8122 17.4653 31.9665 17.6534 30.5551 17.7788C29.1437 17.9199 27.7478 18.0924 27.4531 18.1864C26.7706 18.3903 26.3673 18.3903 26.3673 18.1864C26.3673 18.0924 26.5845 18.0297 26.8327 18.0297C27.5616 18.0297 28.1976 17.6847 29.5004 16.5873C31.8114 14.6275 32.4629 13.436 32.4784 11.1157C32.4784 9.57923 32.1992 8.87373 31.5943 8.96779C31.2686 9.01483 31.2531 9.07754 31.2531 10.8178C31.2531 12.4797 31.222 12.6835 30.8343 13.4047C30.338 14.3453 29.8571 14.9097 28.6163 15.9602C27.7167 16.7284 26.7861 17.2458 26.3208 17.2458C26.0416 17.2458 25.6694 15.8975 25.4367 14.0318C25.3437 13.2479 25.1886 12.3386 25.0955 11.9936C25.0025 11.6487 24.8784 10.9589 24.8318 10.4729C24.7233 9.56356 24.7543 9.51652 25.2971 9.98686C25.778 10.4102 26.9878 10.2064 26.9878 9.70466C26.9878 9.62627 26.6931 9.37542 26.3363 9.15593C25.9641 8.92076 25.4057 8.49745 25.08 8.19957C24.7543 7.91737 24.289 7.63517 24.0408 7.58813C23.7461 7.52542 23.5755 7.38432 23.5445 7.16483C23.498 6.86695 23.4204 6.91398 22.9086 7.52542Z" fill="#E6B361"/>
<path d="M55.3249 10.9119C55.1233 11.1157 55.2163 11.7742 55.4645 11.8682C55.8367 12.0093 56.2555 11.5076 56.0539 11.1627C55.8678 10.8648 55.4955 10.7394 55.3249 10.9119Z" fill="#E6B361"/>
<path d="M69.408 12.2289L68.3378 13.3263L67.5468 12.5424C67.128 12.1191 66.5076 11.6645 66.1974 11.5234C64.9256 10.9903 63.3436 11.3823 62.8938 12.323C62.5836 12.9814 62.5991 13.4204 62.9558 14.2043C63.5297 15.4742 65.1117 16.2111 66.4766 15.8348C66.8644 15.7251 67.3452 15.5056 67.5468 15.3488C67.9035 15.0509 67.9191 15.0509 68.6946 15.584C69.6717 16.2424 70.835 16.5246 71.8742 16.3208C72.7117 16.1641 73.2235 15.7878 72.9444 15.5056C72.8668 15.4272 72.2309 15.2547 71.564 15.145C70.3852 14.9569 69.2684 14.5492 69.0823 14.2357C69.0358 14.1573 69.2684 13.734 69.6097 13.2793C70.4938 12.1035 70.9435 11.1314 70.6023 11.1314C70.5403 11.1314 69.9974 11.6174 69.408 12.2289ZM65.5925 12.4641C65.8407 12.5895 66.337 13.0285 66.6938 13.4361L67.3452 14.1886L66.9109 14.5335C65.9182 15.3331 64.1656 15.098 63.6538 14.0789C63.3591 13.5145 63.3746 12.8717 63.7003 12.5111C64.0105 12.1662 64.9721 12.1348 65.5925 12.4641Z" fill="#E6B361"/>
<path d="M52.4245 11.931C50.2996 12.903 50.0204 13.8907 51.3543 15.7564C51.7576 16.3208 51.8196 16.4932 51.6645 16.6814C51.3388 17.0733 50.8735 17.136 50.5633 16.8538C50.3151 16.6187 50.2686 16.6187 50.036 16.8538C49.7102 17.1987 49.7257 17.9199 50.067 18.2335C50.6253 18.7509 51.9747 18.453 52.7813 17.6221C53.4482 16.9636 53.3396 16.3678 52.316 15.1136C51.649 14.267 51.6335 13.7339 52.316 13.3263C52.5796 13.1538 53.0604 12.9657 53.3551 12.9187C54.2702 12.7462 54.5339 12.3386 54.0376 11.8526C53.7119 11.5233 53.2621 11.539 52.4245 11.931Z" fill="#E6B361"/>
<path d="M59.1869 12.464C57.8996 12.9343 57.0775 14.1886 57.0775 15.6937C57.0775 16.5873 57.2326 16.8068 57.791 16.7441C58.2098 16.6971 58.2408 16.6187 58.489 15.5369C58.8147 14.0945 59.1869 13.7026 60.1641 13.7809C60.4122 13.7966 60.2882 15.192 59.9469 16.1954C59.7453 16.7911 59.7918 17.3085 60.071 17.6691C60.3037 17.9826 61.2343 17.9199 61.4049 17.5907C61.622 17.1674 61.7771 13.7809 61.591 13.2949C61.2808 12.4797 60.1951 12.0877 59.1869 12.464Z" fill="#E6B361"/>
<path d="M14.0057 12.6364C13.9592 12.7775 14.0212 13.0754 14.1453 13.3106C14.44 13.8123 14.6416 14.9254 14.502 15.3487C14.4555 15.5055 14.1918 15.7407 13.9282 15.8504C13.4008 16.0699 13.4474 16.1013 12.3616 14.6746C11.8963 14.0631 11.2914 13.9377 11.1984 14.4394C11.1363 14.8157 12.6098 16.9949 13.0906 17.2144C13.5404 17.4182 14.1453 17.3241 14.6882 16.9636C15.1069 16.697 15.4016 15.725 15.262 15.0979L15.169 14.6589L15.4947 15.0508C15.6653 15.2703 15.991 15.8347 16.2237 16.3051C16.8131 17.4809 16.8131 18.5314 16.2547 19.3936C15.8049 20.0835 14.5176 21.0085 13.618 21.3063C13.0441 21.4945 12.7649 21.7297 12.92 21.8864C13.1682 22.1373 14.9674 21.9335 15.7118 21.5886C17.4645 20.7733 18.209 19.7072 18.2245 18.014C18.2245 16.5873 17.542 15.2703 15.96 13.6241C14.7657 12.3856 14.2074 12.1034 14.0057 12.6364Z" fill="#E6B361"/>
<path d="M55.387 13.5144C55.1078 14.3297 54.72 16.4462 54.7976 16.6814C55.0923 17.4653 55.8988 16.9636 56.1315 15.8661C56.3176 14.9725 55.9919 13.1695 55.6662 13.1695C55.5886 13.1695 55.4645 13.3263 55.387 13.5144Z" fill="#E6B361"/>
<path d="M7.52246 15.3487C7.47593 15.4271 7.61552 15.9759 7.83266 16.5559C8.04981 17.1203 8.22042 17.622 8.22042 17.6377C8.22042 17.6691 7.87919 17.9513 7.44491 18.2805C6.46777 19.0331 6.42124 19.3466 7.33634 19.2369C7.69307 19.2055 8.12736 19.1114 8.31348 19.0487C8.59266 18.9703 8.71675 19.0644 9.05797 19.6602C9.5543 20.5225 9.67838 20.6009 10.0972 20.3657C10.4074 20.2089 10.4229 20.0992 10.3453 19.2055C10.2523 18.3119 10.2833 18.2021 10.6245 17.8729C11.5241 17.0263 10.6555 15.9915 9.66287 16.697C9.35266 16.9165 9.29062 16.8852 8.70124 16.1953C8.3445 15.772 8.06532 15.3958 8.06532 15.3174C8.06532 15.1606 7.63103 15.1763 7.52246 15.3487Z" fill="#E6B361"/>
<path d="M3.83102 17.1987C3.78449 17.2614 3.62939 17.7631 3.4898 18.3119C3.3347 18.8449 3.14858 19.3309 3.08653 19.378C3.00898 19.425 2.35756 19.2682 1.62858 19.0331C0.682453 18.7352 0.248167 18.6568 0.124085 18.7822C-0.186119 19.0958 0.124086 19.3937 1.45796 20.1619C2.18694 20.5852 2.79184 21.0085 2.79184 21.1026C2.79184 21.1966 2.65225 21.6826 2.48164 22.1843C1.84572 24.05 1.95429 25.414 2.76082 25.5237C3.28817 25.6021 3.52082 25.3199 3.62939 24.489C3.8 23.2034 4.07919 21.7924 4.17225 21.7924C4.21878 21.7924 4.60653 21.9648 5.02531 22.1843C6.15756 22.7644 6.82449 22.6703 6.82449 21.9492C6.82449 21.6199 5.86286 20.7263 5.11837 20.3814L4.31184 20.0051L4.43592 19.2839C4.51347 18.892 4.56 18.2648 4.57551 17.8729C4.57551 17.2614 4.52898 17.1674 4.23429 17.1203C4.06368 17.089 3.87756 17.1203 3.83102 17.1987Z" fill="#E6B361"/>
<path fill-rule="evenodd" clip-rule="evenodd" d="M50.1755 21.4004C48.2368 21.6669 43.9249 22.3568 42.8392 22.5919C41.8931 22.7801 41.1641 22.7174 38.4653 22.1373C36.0147 21.6199 34.0759 21.6042 30.4776 22.0903C27.391 22.4979 25.5919 22.9996 24.1959 23.8305C22.4278 24.8652 21.6833 25.1945 19 26.1038C14.4866 27.6246 11.1363 29.4589 8.90288 31.6225C7.11921 33.347 6.15757 35.3225 5.7388 38.1758C5.33553 40.8568 5.1339 41.6877 4.43594 43.2398C3.41227 45.5445 3.21064 46.5479 3.3037 48.8369C3.41227 51.4708 3.95513 53.1797 5.36655 55.3903C6.2041 56.6915 8.23594 58.8081 9.44574 59.6233C9.97308 59.9839 10.4229 60.4542 10.7021 60.9403C11.6792 62.6648 13.4474 63.825 16.689 64.8284C18.4106 65.3771 18.6743 65.4242 20.551 65.4242C22.04 65.4398 23.2343 65.3301 25.1421 65.0165C29.0041 64.3737 29.2833 64.4051 30.5551 65.628C31.2686 66.3178 32.0131 66.6 33.3004 66.7254C34.6963 66.8509 35.9837 66.5373 38.1706 65.5339C39.1012 65.0949 40.1714 64.6716 40.5282 64.5932L40.5805 64.5817C40.9263 64.5058 41.3275 64.4177 41.4898 64.3581C41.9861 64.217 43.1339 64.9068 43.5992 65.6123C43.8163 65.9572 44.1576 66.6941 44.3592 67.2585C44.778 68.4814 45.3208 69.3123 46.2514 70.1746C47.6008 71.4445 49.9894 72.5733 51.3698 72.6047C51.7421 72.6047 53.0759 72.5576 54.3323 72.4949C56.5192 72.4008 56.6433 72.4008 56.969 72.7144C58.1323 73.8119 61.3119 74.3136 63.6849 73.7492C65.8719 73.2475 67.5314 72.0089 69.3616 69.5318C70.3543 68.1835 72.3086 64.2797 72.6498 62.9627C73.0065 61.5987 73.0996 59.686 72.898 58.2593C72.6498 56.5975 72.7429 56.0958 73.5494 55.0297C74.8368 53.3208 75.3331 51.753 75.7829 48.1314C76.1241 45.3093 76.031 44.1962 75.3796 43.0203C75.1004 42.503 74.4955 41.3742 74.0147 40.4805C73.5339 39.5869 72.7429 38.3797 72.2621 37.7996C71.0833 36.3729 71.0368 36.2631 71.0368 34.9619C71.0368 34.0839 70.8972 33.4411 70.4163 31.9203C69.3616 28.6593 68.0278 27.2953 65.2825 26.7153C64.4139 26.5271 64.0261 26.3547 63.2972 25.7432C62.1339 24.8025 58.5976 22.6703 57.3723 22.1686C55.2939 21.3064 52.7812 21.0398 50.1755 21.4004ZM59.249 26.4958C59.249 26.2763 55.7902 24.6144 54.8286 24.3792C54.2702 24.2381 53.2931 24.1597 52.347 24.1597C50.5478 24.1911 50.8425 24.1597 46.4686 24.8496C42.1102 25.5551 41.3037 25.5551 38.4808 24.8496C36.4335 24.3322 36.1233 24.3008 33.9208 24.3165C32.618 24.3322 31.3927 24.3792 31.1755 24.4419C30.8188 24.536 30.7568 24.6928 30.5086 26.0254C29.7331 30.1801 29.6245 30.572 29.1437 30.572C28.6319 30.572 27.9184 29.7411 27.9184 29.1297C27.9184 28.5182 28.4457 26.1979 28.7715 25.3513C28.9731 24.8339 28.9731 24.7712 28.7715 24.7712C28.2596 24.7712 25.8866 25.5708 25.3282 25.9157C25.0025 26.1195 24.4131 26.4801 24.0098 26.7153C23.1257 27.2169 22.3037 28.2517 21.8694 29.4119C21.6988 29.8822 21.3421 30.6818 21.0939 31.2148C20.6286 32.1398 19.5119 35.2911 19.6049 35.4008C19.6359 35.4165 20.1012 35.1343 20.6441 34.758C21.978 33.8174 24.0098 32.7983 25.0955 32.5318C25.5763 32.422 26.8172 32.2809 27.8408 32.2182C30.0278 32.1085 31.7804 32.3593 33.1298 32.9864C34.138 33.4568 34.2776 33.4725 34.2776 33.1589C34.2776 32.8767 35.3478 30.1017 35.5649 29.8195C35.658 29.7097 35.9061 29.6314 36.1233 29.6627C36.449 29.6941 36.5576 29.8352 36.6661 30.3055C36.7902 30.8229 36.7437 31.0737 36.2474 32.3123C35.4098 34.3661 35.4719 35.0246 36.5421 36.2631C37.1625 36.953 37.209 37.2665 36.6972 37.486C35.9061 37.8466 34.96 37.2665 34.4327 36.0907C34.138 35.4479 33.9984 35.3225 33.378 35.103L33.3299 35.0861C32.9396 34.9496 32.5194 34.8026 32.3853 34.7424C32.1372 34.6326 32.1061 34.7267 32.1061 35.683C32.1061 36.9059 32.4319 38.6305 32.7731 39.3047C33.0988 39.9004 33.8898 40.7 34.8204 41.3271L35.5804 41.8602L36.0612 41.3898C36.7902 40.6686 37.4261 40.5119 38.031 40.8725C38.698 41.2644 38.8221 41.9542 38.2637 42.1581C38.0621 42.2364 37.7674 42.5657 37.6278 42.8792C37.1935 43.8042 36.2939 46.3127 36.2939 46.5949C36.2939 47.0025 35.7355 47.5042 35.2857 47.5042C35.0686 47.5042 34.7119 47.3318 34.5102 47.1123C34.0139 46.6106 33.9984 45.811 34.4947 44.447L34.867 43.428L34.4482 43.3182C33.1919 43.0203 31.7494 41.6877 31.0825 40.2297C30.6017 39.1792 30.338 37.0627 30.4776 35.3381C30.5706 34.1153 30.5551 34.0525 30.2294 33.9742C30.0433 33.9271 29.3608 33.9428 28.7094 34.0212C28.058 34.0996 26.9723 34.2407 26.2898 34.3191C25.2506 34.4445 24.7698 34.6169 23.3429 35.3381C22.3968 35.8242 21.2025 36.561 20.7061 36.9686C19.8686 37.6585 19.7755 37.7839 19.8221 38.2542C19.8841 38.9754 20.6286 40.4805 21.6057 41.8288L22.4433 42.9733L23.0482 42.2208C23.6376 41.4839 24.3355 40.8097 24.7698 40.5589C25.1266 40.3394 25.7159 40.8568 25.84 41.4682C25.9796 42.2678 25.5608 43.2712 24.6302 44.3059C23.6376 45.4034 22.5984 45.9521 21.4972 45.9521C20.3029 45.9678 19.1241 45.2466 19.2637 44.5725C19.3102 44.3373 19.4498 44.3059 20.0702 44.3373C21.311 44.4157 21.3731 44.3059 20.52 43.4593C20.1012 43.0517 19.5429 42.4403 19.2792 42.0953C18.8294 41.5153 18.7674 41.4839 17.9763 41.4839C17.2939 41.4839 14.471 41.9542 14.3004 42.0953C14.2849 42.111 14.4555 42.4716 14.6882 42.8949C15.0759 43.5691 15.1225 43.8199 15.1225 45.0742C15.1225 46.0932 15.0449 46.6263 14.8588 47.0025C14.7037 47.3161 14.6261 47.7081 14.6727 47.9746C14.9053 49.1191 13.711 49.4797 12.4392 48.6487C11.5241 48.053 11.5396 47.567 12.4702 47.3161L13.1372 47.1436L13.1217 45.1055C13.1061 43.3339 13.0751 43.0674 12.8115 42.8792C12.5633 42.6911 12.4237 42.7068 11.7568 43.0517C10.7176 43.5847 9.89553 44.4627 9.55431 45.3877C9.16655 46.4538 9.02696 46.5636 8.68574 46.1246C8.329 45.7013 8.14288 44.5881 8.29798 43.8826C8.45308 43.1614 9.77145 41.8915 11.0898 41.2017C13.0906 40.1513 15.6808 39.5712 17.2629 39.822C17.6661 39.8847 17.9919 39.9161 17.9919 39.8847C17.9919 39.8534 17.8833 39.3674 17.7437 38.7716C17.1698 36.3102 17.6817 33.6919 19.4343 30.1487C19.8686 29.2708 20.1788 28.5025 20.1323 28.4398C19.9927 28.2987 16.5804 29.6941 15.1225 30.4936C12.3927 31.9987 10.3608 33.7547 9.50778 35.3695C8.9339 36.4669 8.60819 37.7212 8.29798 40.1042C8.09635 41.672 8.0188 41.9072 7.08819 43.7415C6.06451 45.7326 5.67676 46.8144 5.52166 48.1941L5.42859 48.9466L6.45227 50.0127C7.02615 50.6085 7.80166 51.2513 8.18941 51.4394C9.21308 51.9097 10.6555 51.8784 12.2996 51.3297C13.5249 50.9377 15.7894 49.7305 16.1461 49.2915C16.3633 49.025 16.8131 49.0093 17.2319 49.2288C17.6661 49.4797 17.6351 50.4831 17.1543 51.0631C16.2547 52.1449 13.1217 53.4932 11.0433 53.7127C9.29064 53.8852 7.98778 53.4775 6.6539 52.3487L5.92492 51.753L6.2041 52.5055C6.56084 53.4148 7.39839 54.8886 8.06533 55.7352C8.85635 56.7386 11.4931 59.0589 12.2531 59.4195C13.3388 59.9369 13.4163 59.9839 13.4629 60.2347C13.4939 60.3602 13.3543 60.5326 13.1527 60.6267C12.827 60.7678 12.9045 60.8305 14.1143 61.4263C16.8906 62.7903 20.0237 63.292 22.7225 62.8059C26.0882 62.2102 26.6155 62.0691 27.8253 61.3949L29.0506 60.7208L28.4457 60.5953C27.5461 60.4386 27.0033 60.0936 25.8866 58.9962L24.8629 58.0085L24.4596 58.322C23.3584 59.2 20.427 60.2034 18.9535 60.2034C17.1853 60.2034 16.0221 59.2157 16.658 58.2436C16.9682 57.7733 17.2629 57.7576 18.0694 58.1653C18.4261 58.3534 18.9845 58.4788 19.4343 58.4788C20.3494 58.4788 23.3274 57.5068 23.9478 57.0208L24.3821 56.6602L23.8702 55.6568C23.591 55.1081 23.3429 54.3242 23.2963 53.9165L23.2343 53.1797H22.2727C21.0784 53.211 20.5976 52.9602 20.6596 52.3958C20.6906 52.0508 20.7837 51.9725 21.1249 51.9568C21.3421 51.9411 22.1486 51.5335 22.8931 51.0475C24.5061 49.997 24.8319 49.8873 25.3592 50.2322C25.871 50.5614 25.8555 51.1572 25.3592 51.8314C24.7543 52.6309 24.8163 53.6343 25.6229 55.453C26.7706 58.1339 28.3372 59.4195 30.1208 59.2C30.8963 59.0903 30.9739 59.0432 31.6098 58.1653C32.3233 57.1775 33.0523 55.6725 33.3314 54.6064L33.5176 53.9479L32.4939 52.5682C31.4082 51.0788 30.8188 49.7775 30.8963 49.0093C30.9274 48.6487 31.0204 48.5233 31.2531 48.5233C31.4702 48.5233 31.6253 48.7271 31.827 49.3072C31.9976 49.8089 32.2923 50.2636 32.649 50.5614C32.9592 50.8123 33.5796 51.3453 34.0139 51.7216C35.4253 52.9602 35.8596 53.0699 38.6514 53.0386C40.978 52.9915 41.1021 53.0072 41.2572 53.3208C41.5363 53.8225 41.3502 54.042 40.1404 54.6534C38.6514 55.4216 37.0539 55.5627 35.5649 55.0453C35.0376 54.8572 34.5723 54.7161 34.5412 54.7161C34.4947 54.7161 34.4482 55.2648 34.4017 55.9233C34.3551 56.6758 34.2155 57.4127 34.0139 57.8517C33.5331 58.9335 31.8735 61.097 31.098 61.6458L30.4155 62.1318L30.9894 62.5081C31.2996 62.7275 31.7804 63.1195 32.0596 63.3703C33.0212 64.311 34.4482 64.1699 37.2245 62.8686C38.1241 62.4453 39.1478 62.0377 39.5045 61.9593C40.1249 61.8182 41.4433 60.9716 41.8776 60.4229C42.0017 60.2975 42.9012 59.5136 43.9094 58.714C45.1968 57.6636 46.0033 56.8797 46.6857 55.939C48.1127 54.042 49.4155 51.1102 48.8416 51.1102C48.7176 51.1102 48.2678 50.9377 47.818 50.7339C46.4376 50.0754 45.569 48.4136 46.3755 47.9746C46.7788 47.7551 47.2596 47.9119 47.3837 48.2881C47.5078 48.6958 47.8025 48.7742 49.6327 48.9153C52.3935 49.1034 53.3861 49.9343 51.8196 50.7339C51.1682 51.0475 51.1217 51.1415 50.7959 52.2233C50.3927 53.6343 49.8498 54.7318 48.7796 56.3153L47.9576 57.5225L48.671 57.6479C49.6482 57.789 54.0996 57.8047 54.6425 57.6479C55.0302 57.5381 55.0612 57.4754 54.9837 57.0208C54.2857 52.772 53.9755 50.6242 53.9755 50.0911C53.9755 49.2758 54.6425 45.5915 55.0457 44.1648C55.449 42.7695 56.0539 41.4525 56.6278 40.7314C57.0931 40.1356 57.0931 40.1356 56.8449 39.4301C56.7208 39.0381 56.6123 38.3169 56.6123 37.8466C56.6123 36.8903 56.8929 33.8351 57.7878 34.758C58.2171 35.2008 58.3029 35.1343 58.2874 36.2631C58.2563 37.7055 58.489 38.411 59.28 39.1949C59.7298 39.6653 60.0555 39.775 61.8547 40.1356C63.6074 40.4962 64.1192 41.3428 63.018 42.0483C62.5216 42.3462 62.227 42.4089 61.1878 42.3932C60.4123 42.3932 59.7298 42.2835 59.3421 42.1267C59.0163 41.9699 58.6906 41.8602 58.6286 41.8602C58.3804 41.8602 57.3568 43.0674 57 43.7886C56.6123 44.5881 56.0384 46.8144 56.178 46.9555C56.2245 47.0025 56.7674 46.9085 57.3723 46.736C57.9772 46.5636 59.311 46.3441 60.3192 46.25C64.507 45.8424 67.1592 46.7831 67.8727 48.9466L68.1208 49.7148L68.6482 49.2288C69.3461 48.6174 69.8425 48.4919 70.3388 48.8212C70.8816 49.1818 70.8196 49.5737 70.0906 50.4203C69.7494 50.828 69.2686 51.5335 69.0514 52.0038C68.6482 52.8347 68.6482 52.8504 68.9118 53.5559C69.2376 54.4339 69.0359 55.014 68.3535 55.2492C67.7331 55.4686 67.1902 55.1237 66.7094 54.1987C66.3837 53.5403 66.3527 53.3521 66.4768 52.7093C66.6008 52.0822 66.5698 51.8157 66.2596 50.9691C65.36 48.4449 65.5461 48.5233 60.3192 48.5233C57.0465 48.5233 56.147 48.5703 55.9453 48.7428C55.6041 49.0093 55.6041 50.2322 55.9143 52.678C56.0384 53.6657 56.1935 55.061 56.2555 55.7508L56.3796 57.0364L57.8065 56.3466C58.8302 55.8449 59.311 55.5314 59.5127 55.1864C59.7143 54.8258 59.8849 54.7161 60.1796 54.7475C60.5363 54.7945 60.5674 54.8729 60.6139 55.5784C60.6759 56.6915 60.0245 57.6479 58.551 58.6199C56.8139 59.7644 55.6972 60.078 53.0914 60.172C50.5943 60.2504 49.2449 60.0309 47.6939 59.2941L46.7788 58.8551L44.8555 60.4072L42.9478 61.975L43.6923 62.3983C44.6229 62.9314 45.3208 63.825 45.9257 65.189C47.1821 68.0581 47.6163 68.5754 49.4621 69.5004C50.5633 70.0492 51.1372 70.0962 53.898 69.8453C55.418 69.7199 55.4645 69.7042 56.178 69.0771C58.1478 67.3369 60.8931 63.0097 60.5053 62.2572C60.2416 61.7555 60.3037 61.05 60.7225 60.0153C61.3429 58.4788 62.1649 57.8047 62.6612 58.4004C62.8319 58.6042 62.8008 58.761 62.5372 59.3254C62.1029 60.1877 62.1029 60.6894 62.5527 61.097C62.8319 61.3792 63.1421 61.442 64.3208 61.489C65.5616 61.536 65.7943 61.5831 66.1355 61.9123C66.787 62.5394 66.6629 63.1038 65.7788 63.5585C65.3755 63.778 64.9412 63.825 63.778 63.7936L62.3045 63.7466L61.9943 64.4521C61.8237 64.8284 61.5135 65.5025 61.3274 65.9258C61.0792 66.4589 60.4743 67.2114 59.4196 68.2619C58.551 69.1085 57.8841 69.8453 57.9151 69.9081C58.1012 70.2059 59.5437 70.7547 60.4898 70.8801C63.9331 71.3661 66.1821 69.6886 69.067 64.5148C70.1992 62.4924 70.4784 61.3949 70.4163 59.2627C70.3388 55.939 70.3543 55.7509 70.7731 54.8572C70.9902 54.3869 71.3935 53.7284 71.6416 53.3835C71.9519 52.9602 72.2465 52.2233 72.5257 51.1886C72.991 49.4326 73.3633 45.9992 73.1772 45.1525C72.96 44.0708 70.9747 40.7157 69.4237 38.7403C68.7412 37.8936 68.6016 37.7839 68.1053 37.7839C67.4229 37.7839 64.8016 37.0784 64.0572 36.6864C63.1886 36.2318 62.9094 35.8242 62.9559 35.0873C62.9714 34.8216 63.0023 34.8363 63.5555 35.1004L63.5608 35.103C63.9486 35.3068 64.6465 35.4322 65.7633 35.4949C66.6629 35.5576 67.5625 35.6203 67.7796 35.636C68.1208 35.6674 68.1674 35.6047 68.2139 35.103C68.2759 34.4445 67.4384 31.6852 66.9576 30.9483C66.4147 30.1174 65.6082 29.7097 63.7935 29.3178C62.8629 29.1297 61.7772 28.8318 61.3739 28.675C60.9706 28.5025 60.3657 28.3771 60.04 28.3771C58.6751 28.3771 56.4106 29.4432 54.4719 31.011C52.1919 32.8453 51.4629 33.5822 51.0286 34.5386C50.7804 35.0403 50.4857 35.5419 50.3461 35.636C50.098 35.8398 49.3845 38.1915 49.2294 39.3517C49.1519 40.0102 49.1829 40.1356 49.5396 40.4962C50.0049 40.9665 50.0514 41.5309 49.6637 42.017C49.3845 42.3775 49.4465 42.3619 45.9878 42.7381C45.2433 42.8165 45.0106 42.7852 44.84 42.597C44.4833 42.1424 44.7314 41.7975 45.9102 41.139L47.0735 40.4805L47.2286 39.5555C47.3217 39.0538 47.4612 38.4894 47.5233 38.3013C47.6163 37.9877 47.5698 37.9564 46.7633 37.8623C45.507 37.6898 44.7004 37.8309 43.4131 38.4267C42.7772 38.7089 42.2343 38.9597 42.2033 38.9911C42.1723 39.0225 42.0792 39.4301 42.0172 39.9161C41.8931 40.9038 41.5674 41.4839 41.009 41.7347C40.6833 41.8915 40.5747 41.8602 40.28 41.5623C39.9698 41.2487 39.9388 41.0919 39.9853 39.4771C40.0319 37.8623 40.0008 37.6898 39.6286 36.9686C39.2408 36.2161 39.2408 36.1691 39.489 35.8869C39.8768 35.4479 40.0163 35.5106 40.8539 36.3572L41.6139 37.1411L42.2343 36.7335C43.7853 35.7458 45.5535 35.5733 47.058 36.2631C47.9421 36.6708 48.2368 36.6864 48.2368 36.3258C48.2368 36.0436 49.7412 32.9551 50.098 32.5004C50.5168 31.9674 50.3461 31.7636 48.8882 31.0894C48.0196 30.6818 47.4457 30.525 46.3445 30.4309C44.6539 30.2742 44.3902 30.3525 43.9714 31.2462C43.7388 31.7479 43.5527 31.9203 43.2425 31.9517C42.2033 32.0771 41.9086 30.7915 42.4825 28.6123C42.9168 26.9191 43.3666 26.1822 43.987 26.1822C44.4833 26.1822 44.871 26.6212 44.747 27.0288C44.6849 27.2169 44.6074 27.5305 44.5608 27.75L44.4988 28.1419L45.8947 28.189C48.1747 28.2517 50.098 29.0513 51.1682 30.3682L51.618 30.917L53.0604 29.7254C54.7045 28.3928 57.4188 26.8877 58.5355 26.7309C58.9233 26.6682 59.249 26.5585 59.249 26.4958Z" fill="#E6B361"/>
</svg>
