<svg width="88" height="69" viewBox="0 0 88 69" fill="none" xmlns="http://www.w3.org/2000/svg">
<g clip-path="url(#clip0_0_170)">
<path fill-rule="evenodd" clip-rule="evenodd" d="M59.5625 0.229248C56.6481 0.947021 53.5462 3.28491 52.318 5.68433C51.1522 7.96069 50.9441 8.86304 50.8192 12.2263C50.7151 15.0974 50.6526 15.4666 50.2154 16.1023C48.1753 19.0554 49.7575 23.0749 53.3173 23.9568C54.1708 24.1619 54.254 24.2439 54.3789 24.9207C54.6912 26.9099 56.7313 29.9041 58.6465 31.196C59.5001 31.7908 59.5001 31.7908 59.5001 33.1033V34.4158L57.564 35.3386C56.1068 36.0154 54.4622 36.5486 51.1731 37.3689L46.7181 38.4763L44.9278 39.7683C44.9278 39.8914 44.7404 40.3835 44.5114 40.8552C44.1367 41.614 44.0326 42.6394 43.6787 48.7712C43.4498 52.6472 43.1583 58.7585 43.1583 59.0046L42.9918 61.9167C42.9085 63.5369 42.8877 65.1365 42.9501 65.5056C43.1167 66.3875 43.991 67.3923 45.0319 67.8435C45.8229 68.2126 46.8846 68.2332 65.3081 68.2332C84.6476 68.2332 84.7725 68.2332 85.6677 67.8025C86.2922 67.5154 86.7502 67.0847 87.1249 66.4285C87.6453 65.5466 87.687 65.3621 87.6453 63.1267C87.6245 61.8142 87.5413 60.3582 87.4788 59.866L87.3539 59.0046L86.2506 41.0398C86.2506 41.0398 85.6267 39.7588 85.0015 39.1121C83.4359 37.4925 79.4641 37.3689 79.4641 37.3689C76.0084 36.5076 74.5511 36.0359 72.9898 35.2771L70.9497 34.3132V32.9597C70.9497 31.6677 70.9705 31.6062 71.6991 31.1345C73.427 29.9656 74.9883 27.7507 75.7377 25.3923C76.0708 24.3259 76.1333 24.2644 77.0284 24.0388C79.0269 23.5466 80.4841 22.1316 80.9421 20.2244C81.2544 18.9529 81.0878 17.8044 80.4217 16.574C79.9429 15.6716 79.922 15.4255 79.8596 11.324C79.7971 7.14038 79.7763 6.97631 79.2351 5.84838C78.0693 3.40796 75.7585 1.9519 73.0315 1.97241C72.2612 1.97241 71.3869 2.07495 71.0746 2.198C70.5542 2.38257 70.4084 2.34155 69.659 1.66479C68.0977 0.290771 67.2858 0.0651855 63.7676 0.00366211C61.7275 -0.0168457 60.2703 0.0446777 59.5625 0.229248ZM72.4694 13.7234C71.3244 13.5593 70.3044 13.2107 69.0761 12.616C68.0977 12.1238 67.265 11.7136 67.2025 11.6931C67.1401 11.6726 66.6821 12.0212 66.1617 12.4519C64.0175 14.3181 61.4361 15.1794 58.2094 15.1794L56.1693 15.1589V19.4041C56.1693 22.3162 56.2525 23.9568 56.4607 24.6746C57.6265 28.9812 62.0814 31.8728 66.4739 31.155C69.4925 30.6628 71.9698 28.8787 73.3021 26.2126L73.9682 24.8796L74.0307 19.4246L74.0931 13.99L72.4694 13.7234ZM54.0875 22.1111V19.0349C54.0875 17.3328 54.0251 15.9382 53.921 15.9382C53.4838 15.9382 52.2556 16.7791 51.86 17.3738C50.7151 19.0144 51.631 21.3933 53.6295 21.988L54.0875 22.1111ZM79.0685 18.9939C79.0477 18.0095 78.3191 16.7996 77.4239 16.3689C76.966 16.1228 76.5288 15.9382 76.4663 15.9382C76.4039 15.9382 76.3623 17.3123 76.3623 19.0144C76.3623 20.696 76.4247 22.0906 76.4872 22.0906C76.5704 22.0906 76.9868 21.8855 77.4239 21.6394C78.2775 21.1677 79.0685 19.8962 79.0685 18.9939ZM68.181 36.7537C68.5765 35.6257 68.8471 34.4978 68.8471 33.821C68.8679 33.2468 68.8055 32.7751 68.7222 32.7751C68.6181 32.7957 67.9936 32.9392 67.3066 33.1033C66.0992 33.3699 64.1215 33.3494 62.3729 33.0417C61.6026 32.8982 61.5818 32.9187 61.5818 33.575C61.5818 33.9441 61.9357 35.2361 62.3521 36.4666L63.1431 38.7224L65.329 38.6609L67.5148 38.5994L68.181 36.7537ZM61.8524 40.4656C61.4777 40.158 61.103 39.5222 60.8948 38.8249C60.6867 38.1892 60.3952 37.3894 60.2703 37.0613L59.9997 36.4666L58.0428 37.3894C56.6064 38.0662 54.941 38.5994 51.9017 39.3376C48.0504 40.281 47.6965 40.4041 47.072 41.0398C46.2601 41.9011 46.2809 41.655 45.7605 51.1091C45.5315 55.2722 45.2401 59.948 45.136 61.4656C44.8653 65.239 44.8653 65.116 45.4482 65.6697C45.927 66.1619 46.0311 66.1824 49.0913 66.1824H52.2139V59.0457C52.2139 52.3806 52.2347 51.8679 52.5886 51.5603C53.0883 51.1091 53.5254 51.1296 53.9418 51.5808C54.254 51.9294 54.2957 52.7498 54.2957 59.0662V66.1824H65.2249H76.1541V58.9021C76.1541 51.9294 76.1749 51.6218 76.5496 51.4167C77.1325 51.1296 77.3407 51.1501 77.8195 51.6218C78.215 52.0115 78.2358 52.2986 78.2358 59.1072V66.1824H81.4625C84.6268 66.1824 84.7101 66.1619 85.2097 65.6697C85.6885 65.2185 85.7301 65.0134 85.7093 63.4753C85.7093 62.532 85.626 60.9939 85.522 60.03C85.4387 59.0662 85.1472 54.9646 84.9183 50.9041C84.3562 41.614 84.3978 41.9011 83.5859 41.0398C82.9614 40.363 82.6491 40.2605 78.5481 39.2351C75.3006 38.4353 73.7184 37.9226 72.4277 37.2869C71.491 36.8152 70.6791 36.446 70.6583 36.4871C70.6166 36.5281 70.2835 37.4099 69.9088 38.4558C69.0137 40.9167 68.972 40.9578 65.2457 40.9578C62.5811 40.9578 62.4145 40.9373 61.8524 40.4656Z" fill="#E6B361"/>
<path d="M64.7046 44.6083C64.3299 44.9159 64.2466 45.121 64.3715 45.5516C64.5381 46.1874 64.9128 46.3925 65.6414 46.2079C66.3908 46.0233 66.5782 45.1005 65.9537 44.6083C65.7038 44.4032 65.4124 44.2391 65.3291 44.2391C65.2459 44.2391 64.9544 44.4032 64.7046 44.6083Z" fill="#E6B361"/>
<path d="M64.6213 49.8992C63.976 50.5144 64.434 51.6218 65.3291 51.6218C65.8287 51.6218 66.37 51.0886 66.37 50.6169C66.37 50.1658 65.7455 49.571 65.2667 49.571C65.1001 49.571 64.7878 49.7146 64.6213 49.8992Z" fill="#E6B361"/>
<path d="M64.4963 55.2927C64.3922 55.5183 64.2881 55.8259 64.2881 55.99C64.2881 56.3591 64.9542 56.9539 65.3706 56.9539C65.7661 56.9539 66.3698 56.2976 66.3698 55.8669C66.3698 55.0056 64.9126 54.5545 64.4963 55.2927Z" fill="#E6B361"/>
<path d="M64.5379 60.4812C64.3922 60.6248 64.2881 60.9119 64.2881 61.158C64.2881 61.7527 64.6836 62.0808 65.3706 62.0808C66.12 62.0808 66.5364 61.3425 66.1825 60.6658C65.9119 60.1941 64.9542 60.071 64.5379 60.4812Z" fill="#E6B361"/>
<path fill-rule="evenodd" clip-rule="evenodd" d="M5.59991 2.57664C3.37244 3.29442 1.68622 4.72996 0.707794 6.80125C0.166539 7.9702 0.124903 8.21629 0.06245 11.354L0 14.6968C0.104088 18.3882 -0.291476 24.0279 0.957576 25.9761C1.33917 26.5713 2.10257 27.7192 2.68546 28.1294C3.91802 28.9967 4.68394 29.3394 5.43337 29.4624C6.1828 29.5854 7.49431 29.7495 11.2623 29.852L32.9125 29.852H40.4068L44.3413 29.8521C48 29.8521 50.5 30.187 50.5 28.6871C50.5 27.1872 47 28.6871 45.5 26.687C44.4501 24.6538 44.5 21.687 44.3413 19.9263L44.1956 14.5942L44.1123 11.313L44.1119 11.2899C44.0499 8.07234 44.0482 7.98754 43.3629 6.6577C42.5302 4.97606 40.8856 3.43797 39.1994 2.76121L38.0128 2.28953L22.3997 2.24852C7.78575 2.2075 6.70324 2.22801 5.59991 2.57664ZM41.4061 7.41649C40.7607 6.20653 40.0113 5.48875 38.7414 4.8325L37.8046 4.34031L22.5037 4.2993C14.0935 4.27879 6.93223 4.34031 6.57834 4.44285C4.8713 4.87352 3.6847 5.75535 2.76873 7.29344L2.20666 8.2368V15.9272C2.20666 23.5151 2.20666 23.6382 2.68546 24.479C3.3308 25.689 4.70476 26.9194 5.80809 27.3091C6.5367 27.5347 30.0397 27.6167 33.2456 27.6167C38.3459 27.6167 38.8871 27.4731 40.4068 25.8325C42.0514 24.0483 42.1138 23.7612 42.0306 15.4761L41.9681 8.44188L41.4061 7.41649Z" fill="#E6B361"/>
<path d="M9.97163 9.81592C9.47201 10.2261 9.38874 10.7183 9.72182 11.1899C10.0341 11.6206 10.0549 11.6206 21.8792 11.6206H33.7244L34.0367 11.1694C34.453 10.5952 34.453 10.2876 34.0367 9.89795C33.7452 9.61084 32.3713 9.56982 22.0042 9.56982C12.9485 9.56982 10.2214 9.63135 9.97163 9.81592Z" fill="#E6B361"/>
<path d="M10.0549 15.2301C9.51363 15.5993 9.45118 16.3786 9.92998 16.8297C10.2006 17.1168 11.0749 17.1578 16.425 17.1373C19.8183 17.1168 25.1892 17.0553 28.3327 16.9733L34.0575 16.8502L34.2448 16.2965C34.4114 15.8453 34.3697 15.6403 34.0575 15.3121C33.6828 14.902 33.4746 14.902 22.1082 14.902C11.9493 14.902 10.4712 14.943 10.0549 15.2301Z" fill="#E6B361"/>
<path d="M20.859 20.3774C13.3856 20.4185 10.0756 20.521 9.8674 20.6646C9.53432 20.9517 9.5135 21.9155 9.84658 22.2437C10.0339 22.4282 12.9692 22.4897 21.7958 22.4897C32.8291 22.4897 33.5161 22.4692 33.9533 22.1206C34.328 21.813 34.4113 21.6079 34.2863 21.1772C34.1198 20.5415 33.4328 20.2134 32.3295 20.2749C31.9132 20.3159 26.7504 20.3569 20.859 20.3774Z" fill="#E6B361"/>
</g>
<defs>
<clipPath id="clip0_0_170">
<rect width="88" height="69" fill="white"/>
</clipPath>
</defs>
</svg>
