<svg width="72" height="77" viewBox="0 0 72 77" fill="none" xmlns="http://www.w3.org/2000/svg">
<g clip-path="url(#clip0_0_182)">
<path fill-rule="evenodd" clip-rule="evenodd" d="M16.8046 4.34717C14.5422 4.95805 12.7066 6.87595 12.2371 9.14901L12.0805 9.91618L9.70425 9.973C7.56986 10.0298 7.22836 10.0867 6.31769 10.4134C4.69555 11.0243 3.98409 11.4789 2.7746 12.7007C1.52243 13.9651 0.9248 14.9453 0.398318 16.6217L0.0710449 17.6872V43.3302C0.0710449 67.3252 0.0852742 69.03 0.327171 69.8966C1.01018 72.468 2.85998 74.7411 5.15089 75.8492C7.34219 76.9147 5.94772 76.8579 29.0276 76.8579C52.0647 76.8579 50.7699 76.9005 52.8616 75.8776C55.5793 74.528 57.4861 71.8855 57.8987 68.8595C58.0125 68.1066 58.0552 61.4863 58.0552 48.3167V28.882L60.0189 28.811C62.0252 28.7258 67.3661 27.0456 69.8228 23.4409C73.9253 17.4213 71.7153 8.6944 64.9564 5.44109C63.6641 4.82527 61.826 4.26194 60.4742 4.26194V2.27301H62.7509V-5.34058e-05H56.2054V2.27301H58.4821V4.26194C56.5612 4.40401 54.0797 5.31736 52.6908 6.26507C51.7944 6.87595 50.1865 8.41027 49.5604 9.26267L49.0624 9.94459H47.5114H45.9604L45.8892 9.5468C45.5477 7.91304 45.1778 7.16009 44.1675 6.1088C43.2853 5.18536 42.3888 4.64551 41.1936 4.33296C39.9699 4.02042 17.9857 4.03462 16.8046 4.34717ZM59.5066 26.7084C61.143 26.7084 65.1516 25.7217 67.3469 23.1852C71.397 18.5057 70.1786 10.7686 64.5295 7.60049C58.6671 4.31876 51.0402 7.72835 49.5888 14.2918C49.2473 15.7693 49.3612 18.2839 49.8023 19.6051C50.7272 22.347 52.577 24.478 55.1382 25.714C56.6181 26.4385 57.7991 26.7084 59.5066 26.7084ZM43.3707 8.58075C42.8584 7.61469 41.8339 6.73389 40.9374 6.46396C40.3256 6.27927 38.5612 6.25086 28.9706 6.26507C16.022 6.26507 16.8189 6.19403 15.4956 7.51525C14.2861 8.72282 14.2291 9.02116 14.2291 13.5673C14.2291 18.1134 14.2861 18.4117 15.4813 19.6051C16.8473 20.9689 16.0078 20.8837 28.9564 20.8837C41.9762 20.8837 41.222 20.9547 42.5454 19.6335C43.7975 18.3691 43.8544 18.0708 43.7975 13.2689L43.7548 9.30529L43.3707 8.58075ZM12.0948 17.332V14.7038V12.0756L10.1454 12.0898C8.90741 12.0898 7.89713 12.175 7.41334 12.3029C4.83784 12.999 2.70346 15.3715 2.27658 18.0424C2.07737 19.3068 2.07737 67.4815 2.27658 68.7601C2.60385 70.82 4.12638 72.9368 5.94772 73.8603C6.18729 73.9817 6.37244 74.0862 6.56446 74.1761C7.8323 74.7697 9.39909 74.7269 28.8995 74.7269C42.1327 74.7269 49.6031 74.67 50.1011 74.5848C51.1114 74.3859 52.705 73.6188 53.4876 72.9368C54.2987 72.2407 55.1098 70.9763 55.5224 69.783L55.8497 68.8311V48.6009V28.3706L54.8537 27.9444C54.3129 27.7171 53.3454 27.1914 52.7193 26.7795L51.5809 26.0265L51.5098 46.001C51.4386 64.9101 51.4244 66.0324 51.1825 66.6575C50.8125 67.5951 49.9303 68.5328 48.977 69.0016L48.1659 69.3994H29.0276H9.88923L9.07816 69.0016C8.11057 68.5328 7.22836 67.5809 6.88686 66.6575C6.63073 65.9472 6.60227 61.7278 6.60227 61.7278C6.60227 61.7278 6.54535 51.4138 6.57381 38.9972L6.6165 20.6706L7.01492 19.8608C7.82599 18.2129 9.2916 17.332 11.1983 17.332H12.0948ZM8.7082 39.5938L8.67974 58.0909V63.4752C8.76512 65.9472 8.89318 66.3592 9.70425 66.9416L10.1738 67.2684H29.0276H47.8813L48.3509 66.9416C48.607 66.7569 48.9201 66.4018 49.0624 66.1603C49.29 65.7341 49.3042 64.3276 49.3469 44.623L49.3754 23.5546L48.9485 22.8584C48.4505 22.0344 48.1517 21.3809 47.8102 20.3154L47.5541 19.5341L46.4442 19.4915L45.3201 19.4488L45.0497 19.9603C44.3952 21.1678 42.7303 22.418 41.2078 22.8158C40.1548 23.0999 17.9145 23.0999 16.8616 22.8158C15.3675 22.418 13.973 21.4378 13.2331 20.2728L12.7351 19.4772L11.5114 19.463C10.1169 19.463 9.56195 19.7188 9.0497 20.5996C8.76051 21.0808 8.7512 21.216 8.7122 37.8747L8.7082 39.5938ZM47.5825 13.4962C47.6963 13.07 47.8386 12.5728 47.8955 12.3881C47.9809 12.0898 47.9525 12.0756 46.9706 12.0756H45.9604V14.7038V17.332H46.5865H47.1983L47.2837 15.7977C47.3264 14.9595 47.4544 13.9224 47.5825 13.4962Z" fill="#E6B361"/>
<path d="M20.2767 9.34809C19.238 9.84532 18.185 10.9534 17.872 11.8911C17.7439 12.2605 17.6443 13.0134 17.6443 13.5675C17.6443 14.4199 17.7154 14.7324 18.0712 15.4569C18.5692 16.4372 19.3803 17.2328 20.3336 17.6732C21.3154 18.1136 23.151 18.0994 24.1186 17.6306C25.015 17.1759 25.883 16.3236 26.3241 15.4143C26.6087 14.8319 26.6799 14.4909 26.6799 13.4964C26.6799 12.4593 26.6229 12.1752 26.2814 11.4791C25.8403 10.5983 25.0862 9.83112 24.1613 9.3623C23.7059 9.12078 23.2364 9.02134 22.3399 8.99292C21.2301 8.9361 21.0593 8.96451 20.2767 9.34809ZM23.6063 11.4933C24.1613 11.8911 24.6024 12.7861 24.6166 13.5106C24.6309 15.2438 22.6388 16.4372 21.0593 15.6274C20.2482 15.2154 19.8641 14.5903 19.8071 13.5675C19.7644 12.8571 19.8071 12.6298 20.0917 12.2178C20.2767 11.9479 20.6467 11.5785 20.917 11.3938C21.5858 10.9392 22.8949 10.9961 23.6063 11.4933Z" fill="#E6B361"/>
<path d="M34.4917 9.09226C34.2356 9.1775 33.7376 9.44742 33.3534 9.68893C30.9486 11.3085 30.6214 14.6613 32.6561 16.6928C33.5953 17.6447 34.4348 17.9714 35.8577 17.9714C36.8965 17.9714 37.181 17.9146 37.8783 17.5736C38.7605 17.1474 39.5146 16.3945 40.0127 15.4568C40.283 14.9454 40.3399 14.6328 40.3399 13.4963C40.3399 11.962 40.098 11.3085 39.1447 10.3282C38.3052 9.44742 37.4087 9.04964 36.0712 9.00702C35.4451 8.9786 34.7336 9.02122 34.4917 9.09226ZM37.1526 11.4079C37.4087 11.5784 37.7787 11.9478 37.9637 12.2177C38.2482 12.6297 38.2909 12.857 38.2482 13.5673C38.1913 14.5902 37.8071 15.2153 36.9961 15.6273C35.4024 16.4371 33.4388 15.2437 33.4388 13.4679C33.4388 12.5303 34.136 11.5074 35.004 11.1806C35.5589 10.9675 36.683 11.0812 37.1526 11.4079Z" fill="#E6B361"/>
<path d="M13.7597 28.0013C13.1052 28.3849 13.1763 29.493 13.8878 29.8197C14.4 30.047 43.6696 30.047 44.1676 29.8197C44.6656 29.5924 44.8791 28.9247 44.6087 28.4133C44.4949 28.2002 44.2957 27.9871 44.1818 27.9302C43.755 27.774 14.0443 27.845 13.7597 28.0013Z" fill="#E6B361"/>
<path d="M14.0158 39.7644C13.3186 40.0485 13.1051 40.9435 13.5889 41.4834C13.8451 41.7675 14.0016 41.7675 29.0277 41.7675C44.0538 41.7675 44.2103 41.7675 44.4664 41.4834C44.8221 41.0856 44.7937 40.4037 44.4095 40.0201L44.0964 39.7076L29.1984 39.6791C21.0024 39.6649 14.1723 39.7076 14.0158 39.7644Z" fill="#E6B361"/>
<path d="M13.6174 45.8448C13.5036 45.9869 13.347 46.271 13.3044 46.4841C13.219 46.7967 13.2901 46.9529 13.6316 47.3081L14.0585 47.7343H29.0134H43.9542L44.3384 47.4076C44.8364 46.9672 44.8791 46.2426 44.4095 45.859C44.0965 45.6175 43.4419 45.6033 28.9565 45.6033C14.7415 45.6033 13.8308 45.6175 13.6174 45.8448Z" fill="#E6B361"/>
<path d="M13.7028 51.6411C13.1336 52.0389 13.1763 52.9055 13.7881 53.3743C14.1012 53.6159 43.6411 53.6443 44.1676 53.4028C44.6656 53.1755 44.879 52.5077 44.6087 51.9963C44.4949 51.7832 44.2956 51.5701 44.1818 51.5133C44.0537 51.4707 37.2095 51.428 28.9707 51.428C16.0079 51.428 13.9731 51.4565 13.7028 51.6411Z" fill="#E6B361"/>
<path d="M13.8451 57.4232C13.1621 57.75 13.1194 58.8865 13.7882 59.2275C14.1723 59.4406 29.5115 59.4406 29.8957 59.2275C30.5787 58.8723 30.5217 57.7358 29.7961 57.409C29.3123 57.1959 14.3004 57.2101 13.8451 57.4232Z" fill="#E6B361"/>
<path d="M43.5174 54.7497C43.4427 54.7817 42.3443 56.371 41.0858 58.2909C39.8167 60.2002 38.7502 61.8108 38.6969 61.8748C38.6329 61.9281 38.0037 61.3841 37.0758 60.4562C35.4015 58.8029 35.2095 58.6962 34.7082 59.2082C34.175 59.7309 34.2603 59.8802 36.4466 62.0561C38.6542 64.264 38.7929 64.3493 39.3154 63.7627C39.8913 63.1227 44.6798 55.7097 44.6798 55.4643C44.6798 54.9417 44.0293 54.547 43.5174 54.7497Z" fill="#E6B361"/>
<path d="M58.6449 8.97717C56.8229 9.18354 55.2853 9.91129 54.0269 11.155C52.7028 12.4747 51.9586 14.104 51.8054 16.0482C51.7617 16.6185 51.8437 16.8466 52.1392 16.9878C52.3745 17.0964 52.5933 17.0584 52.7848 16.8683C52.938 16.7162 52.9654 16.613 53.0037 15.9016C53.0201 15.6301 53.0967 15.163 53.1733 14.8697C53.3429 14.218 53.8409 13.1753 54.2348 12.6702C54.585 12.214 55.3237 11.508 55.7668 11.2093C56.2757 10.8617 57.1457 10.4707 57.7694 10.3023C58.2728 10.1611 58.3987 10.1502 59.3562 10.1502C60.4998 10.1448 60.9101 10.2154 61.7582 10.5576C62.2725 10.7639 62.5133 10.7639 62.7267 10.5576C62.9291 10.3566 62.951 9.99275 62.7705 9.79724C62.5461 9.55828 61.5558 9.20527 60.7186 9.06406C60.1003 8.96088 59.1373 8.91743 58.6449 8.97717Z" fill="#E6B361"/>
<path d="M65.0232 10.1513C64.9623 10.1844 63.9381 11.1773 62.7532 12.3632L60.5884 14.509L60.3337 14.3931C59.1987 13.8967 57.8146 14.4097 57.2941 15.5184C56.6131 16.9746 57.4768 18.6074 59.0658 18.8666C60.8486 19.1479 62.2937 17.2725 61.5629 15.6232L61.4466 15.3639L63.6668 13.152L65.8814 10.9401V10.6753C65.8814 10.4602 65.8537 10.383 65.7209 10.2506C65.5437 10.0796 65.2447 10.0355 65.0232 10.1513ZM60.0347 15.5515C60.1455 15.6287 60.306 15.7887 60.3891 15.9045C60.522 16.0976 60.5386 16.1748 60.5386 16.5444C60.5386 16.9139 60.522 16.9912 60.3891 17.1842C60.306 17.3001 60.1455 17.46 60.0292 17.5373C59.8576 17.6531 59.7635 17.6752 59.4036 17.6752C59.0437 17.6752 58.9496 17.6531 58.7779 17.5373C58.6617 17.46 58.5011 17.3001 58.4181 17.1842C58.2852 16.9912 58.2686 16.9139 58.2686 16.5389C58.2686 16.1527 58.2852 16.0921 58.4347 15.8769C58.6838 15.5239 59.0105 15.375 59.4645 15.397C59.7413 15.4136 59.8797 15.4522 60.0347 15.5515Z" fill="#E6B361"/>
<path d="M65.4481 13.1406C65.124 13.3116 65.0842 13.6214 65.323 14.1664C65.5618 14.7167 65.7267 15.3739 65.7608 15.9242C65.8006 16.6242 65.829 16.7257 65.9882 16.8753C66.2895 17.1585 66.7671 17.0837 66.949 16.7203C67.2333 16.1593 66.6022 13.5573 66.0905 13.178C65.92 13.0498 65.6527 13.0337 65.4481 13.1406Z" fill="#E6B361"/>
</g>
<defs>
<clipPath id="clip0_0_182">
<rect width="72" height="77" fill="white"/>
</clipPath>
</defs>
</svg>
