<svg width="108" height="65" viewBox="0 0 108 65" fill="none" xmlns="http://www.w3.org/2000/svg">
<path d="M90.4515 0.114586C88.3498 0.642967 87.7149 1.87586 88.306 4.42971C88.6125 5.77268 88.5906 5.92679 88.1747 7.07162C87.9119 7.75411 87.7149 8.70079 87.7149 9.18515C87.7149 9.66949 87.5836 10.374 87.4084 10.7923C87.0143 11.739 84.628 13.5443 82.2636 14.6891C81.2347 15.1735 79.9868 15.878 79.4613 16.2302C78.2572 17.0668 77.3158 18.7401 76.9875 20.5894C76.8561 21.36 76.5058 22.5268 76.1993 23.1432C75.6082 24.4422 74.7982 25.3008 74.6449 24.8385C74.4041 24.2 73.4189 23.2753 72.6746 23.0111C71.4924 22.6369 70.1569 22.9231 67.5955 24.1119C65.3186 25.1687 63.8956 25.6751 63.1293 25.6751C62.8228 25.6751 62.8666 25.521 63.414 24.7724C64.6618 23.0332 64.6618 21.426 63.3921 20.5233C62.6477 19.995 62.0566 20.061 59.1449 20.9857C56.671 21.7783 56.4521 21.8883 55.2917 23.0552C54.5474 23.8037 53.7811 24.3761 53.3871 24.4642C53.0149 24.5302 52.4457 24.9045 52.1392 25.2788C51.5919 25.9172 51.5043 26.5337 51.5919 28.5592C51.6138 29.1756 51.4605 29.5279 50.9351 30.1003C50.0375 31.069 49.6653 31.7955 49.4902 32.9183C49.3807 33.6008 49.2493 33.821 48.9428 33.821C48.2642 33.821 48.4393 32.7862 49.2931 31.7515C50.7818 29.9021 51.2197 28.317 50.6724 26.5117C50.3002 25.2568 49.5777 24.5743 48.6145 24.5743C47.9577 24.5743 47.6512 24.7504 46.9068 25.521C46.4252 26.0273 45.6589 26.952 45.243 27.5464C44.1702 29.0655 43.0099 29.6159 40.7112 29.682C38.9816 29.748 38.8941 29.726 38.1935 29.0655C36.2888 27.2382 34.0339 27.0401 27.5974 28.0748C25.2987 28.4491 23.3064 28.7573 23.1751 28.7573C22.8686 28.7573 22.8248 27.6785 23.1094 27.2382C23.2626 27.018 23.394 26.996 23.7881 27.2162C24.5324 27.6125 26.8531 27.4143 27.5536 26.8859C29.4583 25.4549 29.3926 22.6589 27.4004 20.4353C26.2182 19.1143 24.8827 18.4098 23.5472 18.4098C22.3213 18.4098 21.4893 18.9162 20.2633 20.4133C17.2202 24.0899 15.8191 25.1027 12.9074 25.7411C10.8276 26.2035 9.73292 26.7979 8.35368 28.1849C7.062 29.4618 6.07683 31.3992 5.50762 33.7109C4.98219 35.8024 4.98219 39.8533 5.48573 42.8475C5.96737 45.6875 5.81412 46.37 4.69759 46.37C2.81481 46.37 0.997711 47.4048 0.4285 48.7698C-0.0750336 49.9586 0.187679 51.4337 1.3261 54.0316C5.22301 62.7939 7.45607 65.4138 9.95185 64.1149C10.6743 63.7406 11.0903 62.86 12.6228 58.5889C13.8488 55.1764 14.8558 53.3271 15.9067 52.5785C17.4392 51.5218 19.9568 52.2703 21.5112 54.2297C22.9999 56.1231 24.5324 57.5982 25.2549 57.8403C26.7655 58.3247 27.9477 57.5321 28.7139 55.5066C28.9985 54.7801 29.3926 54.2958 30.2026 53.7234L31.2973 52.9308L32.7422 53.7013C33.5303 54.1196 34.7782 54.582 35.4788 54.7141C36.2013 54.8462 36.7924 54.9783 36.8143 55.0003C36.858 55.0443 37.077 55.4846 37.3178 55.969C38.084 57.4661 38.916 58.0385 40.4047 58.0385C41.8496 58.0385 42.0466 58.1926 43.3383 60.3722C45.4181 63.8727 48.7677 65.3918 53.2995 64.8634C55.9485 64.5552 57.5029 64.1149 59.0354 63.2122C59.6046 62.882 60.0863 62.7939 60.9182 62.8379C61.7939 62.904 62.3412 62.7719 63.5234 62.2435C64.3335 61.8692 65.1435 61.561 65.3186 61.561C65.4719 61.561 66.1287 61.8252 66.7417 62.1334C68.1866 62.86 69.4126 62.882 71.3829 62.2215C72.784 61.7592 73.003 61.7371 74.3603 61.9793C76.1993 62.3096 77.075 62.1114 78.8046 60.9226C79.5051 60.4382 80.4684 59.9979 80.9938 59.9098C82.3074 59.6897 83.3801 59.0732 83.8399 58.2807C84.1026 57.8183 84.3215 56.7836 84.4529 55.3525C84.5624 54.1417 84.7156 53.0409 84.7813 52.9528C84.847 52.8427 85.3943 52.7547 85.9854 52.7547C86.9924 52.7547 87.1457 52.8207 87.8901 53.6573C88.8971 54.7801 89.6415 55.1764 90.7361 55.1764C92.181 55.1764 93.9325 55.5947 94.3922 56.057C94.7644 56.4313 94.8301 56.8056 94.8301 58.4348C94.852 59.8658 94.9614 60.5703 95.2679 61.2308C96.0998 62.926 97.9826 63.5865 99.4713 62.6618C100.435 62.0894 100.741 61.517 101.267 59.4695C102.339 55.1104 102.405 51.9401 101.42 48.9899C99.6684 43.6841 98.8802 41.6366 98.508 41.3504C98.2015 41.1302 97.6761 41.0862 96.3188 41.2183C94.6768 41.3504 94.5236 41.3284 94.3046 40.9101C94.02 40.3817 94.02 38.2021 94.2608 35.7584C94.3922 34.5255 94.6549 33.6008 95.2241 32.4119C95.9466 30.8708 96.3844 29.2637 96.5158 27.5464C96.5815 26.93 96.6472 26.996 97.4353 28.4271C99.537 32.1698 101.354 34.3273 103.5 35.5602C105.098 36.4849 106.324 36.5069 107.221 35.6042C107.966 34.8337 108.053 33.887 107.506 32.0377C106.674 29.2416 105.098 26.93 103.127 25.6531C102.317 25.1247 101.617 24.4422 101.332 23.9578C100.588 22.6369 100.347 20.4793 100.654 17.8814C101.31 12.0912 101.245 10.5942 100.238 8.94297C99.7559 8.15039 99.3181 7.79814 98.0702 7.18169L96.4939 6.41114V4.80398C96.472 2.97665 96.1436 2.02997 95.246 1.21538C94.2608 0.312729 91.8526 -0.237671 90.4515 0.114586ZM93.4727 3.1748C93.7573 3.43899 93.8449 3.85729 93.8449 5.17825C93.8449 7.6 94.1952 8.19443 96.2312 9.16313C98.4424 10.2419 98.8583 11.2106 98.4424 14.2488C97.8951 18.1676 97.7856 20.061 98.0045 21.8223C98.3986 24.7504 99.4713 26.4897 101.726 27.8987C102.274 28.2289 102.93 28.8013 103.171 29.1316C104.113 30.4085 105.404 33.3806 105.01 33.3806C104.923 33.3806 104.332 32.9844 103.74 32.5C102.514 31.5533 101.201 29.77 99.734 27.1281C98.727 25.3228 97.1726 23.7157 96.3844 23.6716C94.4798 23.5615 94.1952 24.0239 93.8668 27.4143C93.7135 29.0875 93.5165 29.8581 93.013 30.8708C92.0497 32.7862 91.8308 33.6448 91.568 36.4409C91.174 40.4257 91.5462 42.2531 93.0349 43.3759C93.5384 43.7501 93.9762 43.8382 95.2898 43.8382H96.9318L97.1507 44.7188C97.2821 45.2032 97.7856 46.6122 98.2453 47.8671C99.4494 51.0594 99.6903 52.6446 99.3619 55.3525C99.0116 58.1706 98.4205 60.3501 98.0264 60.3501C97.5885 60.3501 97.3258 59.2273 97.4791 57.9724C97.7856 55.7708 96.5815 53.7674 94.5236 53.1069C93.9762 52.9088 92.794 52.6886 91.9183 52.6226C90.4296 52.4684 90.2764 52.4244 89.7509 51.7199C88.8971 50.5971 87.7806 50.1127 86.0292 50.1127C83.1612 50.1127 82.1323 51.2356 81.8914 54.648C81.8039 55.7268 81.6506 56.7395 81.5412 56.8716C81.4098 57.0257 80.9719 57.2239 80.5122 57.2899C79.3957 57.5101 78.4105 57.9504 77.1407 58.831C76.1336 59.5356 75.9366 59.5796 75.1485 59.4255C73.6379 59.1393 71.6894 59.2714 70.2445 59.7777L68.8871 60.2401L67.6174 59.6456C65.9316 58.809 64.3991 58.831 62.7791 59.6677C61.772 60.196 61.4217 60.2621 60.5679 60.152C59.6922 60.0419 59.3419 60.108 58.291 60.6804C55.7296 62.0234 52.7303 62.5958 50.2783 62.1995C47.892 61.8252 46.6879 60.9226 45.1773 58.3687C43.8418 56.1231 42.8129 55.3966 40.9739 55.3966C40.0325 55.3966 39.9887 55.3745 39.4414 54.2958C38.7846 52.9748 37.9308 52.4024 36.3983 52.2043C35.7415 52.1162 34.6469 51.6979 33.7055 51.1915C31.6038 50.0467 30.8813 50.0467 29.1518 51.2356C27.269 52.5125 27.072 52.7326 26.4809 54.0536L25.9555 55.2425L25.2987 54.604C24.9265 54.2517 24.2697 53.4592 23.8319 52.8647C22.9124 51.6098 22.7153 51.4117 21.4237 50.6191C19.1249 49.2321 16.8481 49.034 14.9872 50.0467C12.9293 51.1695 11.5281 53.5032 9.75481 58.699C9.25128 60.2181 8.79153 61.495 8.72585 61.561C8.288 62.0894 3.60295 53.4812 2.94617 50.9273C2.59588 49.5623 2.90238 49.2321 4.78516 49.034C6.99633 48.7918 7.80636 48.0873 8.26611 46.0618C8.48503 45.0711 8.46314 44.5207 8.11286 42.6053C7.65311 39.9414 7.60932 36.2207 8.02529 34.4814C8.92289 30.6947 10.5648 28.9334 13.8488 28.2289C16.87 27.6125 18.9498 26.1154 22.1023 22.3066C23.3502 20.8096 23.8319 20.7215 25.0141 21.7562C25.9336 22.5708 26.5028 23.7377 26.2838 24.3981C26.1525 24.8605 25.8898 24.8605 23.4816 24.4422C21.6207 24.134 20.4823 25.4989 20.329 28.2289C20.2414 29.726 20.2633 29.8141 20.9201 30.4745C21.9272 31.4873 22.8467 31.5313 26.9625 30.8488C30.7281 30.2324 34.1214 29.9241 35.0191 30.1443C35.3037 30.2324 36.0261 30.6727 36.5953 31.157C37.9089 32.2578 39.0911 32.5661 41.2585 32.3679C44.1483 32.1257 45.8341 31.2231 47.3447 29.1536C47.7825 28.5592 48.1766 28.1188 48.2423 28.1849C48.4174 28.361 47.6512 29.6379 46.8192 30.5626C46.1187 31.3332 46.0092 31.5974 45.9435 32.8082C45.7903 35.252 46.9506 36.573 49.1399 36.3968C50.0813 36.3308 50.4315 36.1767 51.0445 35.5822C51.5262 35.1199 51.8546 34.5475 51.9422 34.0631C52.1173 32.9403 52.4238 32.2358 52.9273 31.8836C53.8249 31.2671 54.0876 30.2544 54.219 27.1942C54.219 27.1061 54.5255 26.93 54.8977 26.7538C55.2698 26.5997 56.1018 25.9613 56.7148 25.3228C57.6781 24.3321 58.0721 24.1119 59.6046 23.6276L61.3998 23.0992L60.6555 24.134C58.8822 26.6218 59.5827 28.317 62.4507 28.317C64.1364 28.317 65.7346 27.8546 68.5588 26.5557C69.8942 25.9613 71.1859 25.4549 71.4486 25.4549C71.7551 25.4549 72.1273 25.7631 72.5432 26.3796C73.7911 28.2729 75.3893 28.2729 77.1845 26.4016C78.3667 25.1467 79.0892 23.5836 79.5051 21.382C79.6803 20.4573 80.0306 19.4005 80.2714 19.0703C80.556 18.674 81.6506 17.9695 83.1831 17.1989C86.0073 15.7459 88.4812 13.9406 89.335 12.7077C89.7509 12.1133 90.0137 11.2987 90.2107 10.1318C90.3639 9.16313 90.6704 7.8862 90.9113 7.24774C91.2834 6.16896 91.2834 6.01485 90.9769 4.45172C90.7361 3.28488 90.6923 2.7565 90.8675 2.69045C91.3053 2.49231 93.0786 2.82254 93.4727 3.1748Z" fill="#E6B361"/>
</svg>
