<svg width="60" height="82" viewBox="0 0 60 82" fill="none" xmlns="http://www.w3.org/2000/svg">
<g clip-path="url(#clip0_0_211)">
<path fill-rule="evenodd" clip-rule="evenodd" d="M27.7145 0.110146C25.4617 0.334328 22.4905 1.19902 20.3683 2.23986C19.0623 2.88038 16.3423 4.63258 14.3559 6.79369C12.0493 9.30321 10.4916 12.5682 9.93659 14.2815C9.20196 16.5394 8.94077 18.9253 8.94077 23.1527C8.94077 25.6187 8.87547 26.8677 8.74487 27.1079C8.64692 27.3 8.54897 27.8925 8.54897 28.4209C8.54897 30.7428 10.361 32.6483 12.8588 32.9365C13.724 33.0326 13.7403 33.0646 13.9199 34.1855C14.0831 35.2104 14.8014 37.276 15.3402 38.3329C16.5809 40.7668 18.5562 42.9606 20.858 44.4658L22.0008 45.2024V46.2112V47.22L20.4989 48.2449C19.0459 49.2377 18.7521 49.3497 13.675 51.0791C10.7528 52.0719 8.01024 53.0647 7.55314 53.3049C6.32877 53.9454 4.99012 55.3386 4.30447 56.6997C3.76574 57.7725 3.52087 58.8134 1.82307 67.092C0.125271 75.4187 -0.0543037 76.4275 0.0109962 77.6605C0.0926212 79.7102 0.778271 80.767 2.49239 81.5356L3.30864 81.9039L21.1519 81.952L38.9787 81.984L43.8762 82L50.292 81.952L50.3436 81.9516C56.5778 81.9039 56.7099 81.9029 57.5076 81.5356C59.2217 80.767 59.9074 79.7102 59.989 77.6605C60.0543 76.4275 59.8747 75.4347 58.1769 67.1721C57.1485 62.144 56.1526 57.6444 55.9731 57.164C55.5486 56.0752 54.4059 54.618 53.3774 53.8814C52.3652 53.1608 51.5653 52.8405 45.8352 50.903C41.2642 49.3658 40.9377 49.2216 39.5175 48.2449L37.9992 47.22V46.0511V44.8822L38.9461 44.2737C41.0194 42.9126 42.9947 40.6868 44.2027 38.3009C44.8068 37.1319 45.5251 34.9221 45.7536 33.5771C45.8352 33.0326 45.8842 32.9846 46.4066 32.9846C47.2555 32.9846 48.6595 32.4081 49.4594 31.7196C50.7001 30.6307 51.3041 28.9013 50.8797 27.6203C50.7327 27.1719 50.6348 25.1062 50.5695 20.5746C50.4389 13.3368 50.4062 13.0806 49.1819 10.6306C48.4309 9.14141 47.1902 7.73228 45.9658 6.96366C45.672 6.77151 44.8721 6.08295 44.1864 5.42642C40.1378 1.55131 33.7711 -0.514359 27.7145 0.110146ZM27.2248 2.62417C24.2046 3.07253 19.2771 4.40571 15.9204 7.88976C11.8583 12.1059 11.3895 17.4361 11.3895 22.0638V24.3697L11.9282 24.2416C12.2058 24.1775 12.7445 24.0814 13.0873 24.0334C13.6587 23.9533 13.7403 23.8733 13.9199 23.2648C14.5566 21.1511 16.4666 19.5017 18.7031 19.1334C19.0949 19.0694 20.4172 19.1174 21.6253 19.2295C26.9472 19.7259 31.6815 18.5089 35.6321 15.6266C37.134 14.5217 37.3626 14.4096 38.1625 14.4096C39.0277 14.4096 39.6644 14.7459 40.2194 15.4825C41.3622 17.0197 42.8314 18.0926 43.7783 18.0926C44.3497 18.0926 45.4598 18.7331 45.672 19.1815C45.8026 19.4537 45.9169 20.4465 45.9658 21.7916L46.0311 23.9853L46.7168 24.0654C47.0759 24.1134 47.5494 24.2095 47.7616 24.2736L48.1207 24.3697V19.9501C48.1207 15.0181 47.9412 13.657 47.1086 11.8956C46.5699 10.7747 45.3945 9.39761 44.6272 9.01331C44.3497 8.86919 43.5661 8.21266 42.8967 7.55614C40.0725 4.80193 36.8728 3.24867 32.7426 2.6562C30.604 2.33594 29.2164 2.33594 27.2248 2.62417ZM26.2453 79.5821H38.9951H45.1822H46.4882V73.9135C46.4882 68.4371 46.5046 68.2449 46.8311 67.8286C47.2718 67.2842 47.9901 67.2682 48.5289 67.8126L48.937 68.1969V73.8975V79.5821H52.2673C56.0057 79.5821 56.3812 79.534 57.0179 79.0376C57.8178 78.4131 57.7688 77.6925 56.4465 71.0152C54.7324 62.3042 53.8671 58.349 53.5733 57.7565C53.0999 56.8438 52.251 55.9631 51.4347 55.5307C50.6348 55.0984 45.3781 53.2249 45.2802 53.337C45.2475 53.369 42.962 57.5003 40.2031 62.5283C37.4442 67.5564 34.9465 71.9599 34.6689 72.3442C34.0323 73.2249 32.5467 74.2017 31.4529 74.4579C29.4939 74.9223 27.2737 74.3138 25.8698 72.9527L16.2707 56.1392C15.8756 55.4249 15.5099 54.7647 15.2329 54.2646L15.2315 54.2621C14.9257 53.7099 14.7284 53.3538 14.7198 53.337C14.6219 53.2249 9.36522 55.0984 8.56529 55.5307C7.47152 56.1072 6.52467 57.2761 6.13287 58.5091C5.75739 59.7741 2.39444 76.5556 2.39444 77.2922C2.37812 78.3651 2.78624 79.0857 3.55352 79.3579C3.94532 79.486 5.23499 79.566 7.60212 79.566L11.063 79.5821V73.8975V68.1969L11.4711 67.8126C12.0099 67.2682 12.7282 67.2842 13.1689 67.8286C13.4954 68.2449 13.5118 68.4371 13.5118 73.9135V79.5821H26.2453ZM17.1033 52.5363C17.1033 52.5843 17.7236 53.7693 18.4909 55.1464L22.2456 62.112C22.3926 62.2881 23.5516 64.2898 24.8087 66.5636C26.0657 68.8374 27.2737 70.9031 27.5186 71.1593C28.8736 72.5684 31.2244 72.5364 32.5304 71.0792C33.0038 70.5508 42.9947 52.5523 42.8804 52.4562C42.7008 52.3121 41.1989 51.8958 41.101 51.9598C41.0357 52.0079 38.8155 55.9471 36.1872 60.7189C33.5588 65.5067 31.1917 69.606 30.9632 69.8622C30.4245 70.3907 29.7388 70.4387 29.1348 69.9743C28.9062 69.7982 26.7677 66.0832 23.9598 60.9751C21.3314 56.1872 19.0949 52.184 18.997 52.0879C18.85 51.9278 18.6378 51.9438 17.9522 52.152C17.4951 52.2961 17.1033 52.4723 17.1033 52.5363ZM42.5213 20.2704C41.2153 19.9021 39.697 18.8452 38.9134 17.7563C38.5543 17.2439 38.2115 16.8276 38.1625 16.8276C38.1135 16.8276 37.4932 17.2599 36.7749 17.7723C32.71 20.7507 27.0125 22.1759 21.3804 21.6154C18.8664 21.3752 18.1807 21.5194 17.1686 22.5122C16.4829 23.1687 15.9932 24.2576 16.1727 24.6899C16.2054 24.802 16.5156 25.0262 16.8257 25.2023L17.3971 25.4906L18.0338 25.0102C18.9806 24.2576 19.7642 24.1455 23.3231 24.2095C26.2453 24.2576 26.5391 24.2896 27.1921 24.6259C27.5676 24.818 28.041 25.2343 28.2532 25.5386C28.6124 26.083 28.6287 26.099 29.8041 26.099C30.9142 26.099 30.9958 26.067 31.1754 25.6987C31.4693 25.0742 32.6773 24.3697 33.6731 24.2576C34.1465 24.1935 35.8443 24.1775 37.4442 24.2095C40.5296 24.2736 40.7745 24.3216 41.6397 25.1062L42.0805 25.5226L42.7008 25.1703L43.3049 24.834L43.3538 22.6723L43.4028 20.5266L42.5213 20.2704ZM13.675 30.6307V28.517V26.4193H13.2342C12.32 26.4193 11.3405 27.1239 11.063 27.9565C10.6712 29.0935 11.6344 30.3585 13.022 30.5346L13.675 30.6307ZM48.6105 28.501C48.6105 27.9886 48.0881 27.1559 47.582 26.8196C47.3535 26.6755 46.9127 26.5154 46.5862 26.4673L45.9985 26.3713V28.501V30.6307L46.5862 30.5346C46.9127 30.4866 47.3535 30.3264 47.582 30.1823C48.0881 29.8461 48.6105 29.0134 48.6105 28.501ZM26.18 30.5666C26.5228 29.9101 26.5065 27.1719 26.1473 26.8356C25.9351 26.6275 25.4127 26.5794 22.9313 26.5794C21.2172 26.5794 19.8459 26.6595 19.6826 26.7556C19.4377 26.8837 19.3888 27.1559 19.3888 28.517C19.3888 31.2712 19.7153 31.5434 22.8986 31.5434C25.3311 31.5434 25.7229 31.4313 26.18 30.5666ZM40.1215 28.6771C40.1215 27.0918 40.0888 26.8997 39.8113 26.7396C39.6154 26.6435 38.2768 26.5794 36.5626 26.5794C32.9875 26.5794 33.1017 26.5154 33.1017 28.565C33.1017 30.1823 33.3793 30.9509 34.0976 31.3032C34.4241 31.4794 35.1587 31.5434 36.7912 31.5434H39.0114L39.5664 30.999L40.1215 30.4546V28.6771ZM19.4704 33.561C17.7563 32.7604 16.9563 31.4153 16.94 29.3657C16.94 28.1327 16.9237 28.0366 16.5156 27.7804L16.0748 27.5082L16.1727 30.5987C16.238 33.3689 16.3033 33.8653 16.6951 35.1463C17.9685 39.3897 21.2988 42.6884 25.6739 44.0815C29.1511 45.1864 33.4772 44.706 36.6932 42.8485C39.8603 41.0231 42.1948 37.9165 43.06 34.3777C43.3212 33.3369 43.3865 32.5042 43.3865 30.3745C43.3865 28.9013 43.3212 27.7003 43.2559 27.7003C43.1743 27.7003 43.011 27.7964 42.8641 27.8925C42.6519 28.0526 42.5866 28.4529 42.5376 29.5418C42.4723 31.1751 42.2111 31.8317 41.3132 32.7124C40.2684 33.7532 39.8603 33.8653 36.8238 33.9133C34.4241 33.9614 34.0159 33.9293 33.3793 33.6571C31.7141 32.9365 30.8163 31.6075 30.6857 29.6699L30.604 28.501H29.7388H28.8573V29.4618C28.8573 31.3353 27.8778 32.8885 26.2453 33.6091C25.6086 33.8973 25.1678 33.9454 22.8986 33.9454C20.4825 33.9454 20.2213 33.9133 19.4704 33.561ZM32.8405 50.3746C35.4036 47.5723 35.5505 47.3802 35.5505 46.7717C35.5505 46.0351 35.5668 46.0511 34.6526 46.3713C32.4814 47.156 28.2532 47.2681 25.7555 46.6115C25.0862 46.4194 24.5148 46.2753 24.4985 46.2753C24.4658 46.2753 24.4495 46.5315 24.4495 46.8517C24.4495 47.3642 24.727 47.7164 27.1595 50.3746C28.645 51.9919 29.9347 53.3209 30 53.3209C30.0653 53.3209 31.355 51.9919 32.8405 50.3746ZM28.041 55.0503C28.041 54.9703 26.9309 53.7052 25.5759 52.2321C24.221 50.7589 23.0619 49.5419 23.0129 49.5259C22.866 49.4778 21.2008 50.6468 21.1845 50.7909C21.1845 50.855 22.0008 52.3922 22.9966 54.2016C24.2373 56.4595 24.874 57.4523 25.0046 57.3562C25.7555 56.9078 28.041 55.1784 28.041 55.0503ZM38.8155 50.8069C38.7992 50.7269 38.4074 50.4066 37.9176 50.0703C37.4442 49.7501 37.0197 49.4778 36.9871 49.4778C36.8728 49.4778 32.1059 54.7621 32.0243 54.9703C31.959 55.1624 33.82 56.6676 34.9954 57.3562C35.126 57.4523 35.7464 56.4595 37.0034 54.2016C37.9992 52.3922 38.8155 50.871 38.8155 50.8069ZM31.1101 58.365C31.3876 57.7725 31.3713 57.7405 30.6857 57.2601C30.3428 57.0359 30.0327 56.8438 29.9837 56.8438C29.8368 56.8438 28.694 57.7085 28.694 57.8206C28.694 57.8846 28.7756 58.1408 28.8899 58.365C29.0532 58.7173 29.1674 58.7653 30 58.7653C30.8326 58.7653 30.9469 58.7173 31.1101 58.365ZM26.9309 60.6068C27.0125 60.3026 26.9962 59.9663 26.8819 59.678C26.6697 59.1977 26.5391 59.1496 26.2616 59.4699C26.0983 59.646 26.1473 59.8542 26.4248 60.3986L26.784 61.0872L26.9309 60.6068ZM33.6405 60.2705C33.869 59.8222 33.8853 59.646 33.7384 59.4699C33.4772 59.1496 33.3466 59.1816 33.1344 59.662C32.9385 60.0624 33.0201 60.847 33.2487 60.847C33.314 60.847 33.4936 60.5908 33.6405 60.2705ZM31.6162 63.9375L31.1917 62.6404L30.7509 61.3274H30H29.2491L28.8083 62.6404L28.3838 63.9375L29.1511 65.3626C29.5756 66.1312 29.951 66.7718 30 66.7718C30.049 66.7718 30.4245 66.1312 30.8489 65.3626L31.6162 63.9375Z" fill="#E6B361"/>
</g>
<defs>
<clipPath id="clip0_0_211">
<rect width="60" height="82" fill="white"/>
</clipPath>
</defs>
</svg>
