<svg width="34" height="32" viewBox="0 0 34 32" fill="none" xmlns="http://www.w3.org/2000/svg">
<g clip-path="url(#clip0_0_54)">
<path d="M17.2 2.88125C21.6887 2.88125 22.2203 2.9 23.9856 2.975C25.6262 3.04375 26.5122 3.30625 27.1028 3.525C27.8837 3.8125 28.4481 4.1625 29.0322 4.71875C29.6228 5.28125 29.9837 5.8125 30.2856 6.55625C30.5153 7.11875 30.7909 7.96875 30.8631 9.525C30.9419 11.2125 30.9616 11.7188 30.9616 15.9875C30.9616 20.2625 30.9419 20.7688 30.8631 22.45C30.7909 24.0125 30.5153 24.8563 30.2856 25.4188C29.9837 26.1625 29.6162 26.7 29.0322 27.2563C28.4416 27.8188 27.8837 28.1625 27.1028 28.45C26.5122 28.6688 25.6197 28.9313 23.9856 29C22.2137 29.075 21.6822 29.0938 17.2 29.0938C12.7112 29.0938 12.1797 29.075 10.4144 29C8.77374 28.9313 7.88781 28.6688 7.29718 28.45C6.51624 28.1625 5.95187 27.8125 5.36781 27.2563C4.77718 26.6938 4.41624 26.1625 4.11437 25.4188C3.88468 24.8563 3.60906 24.0063 3.53687 22.45C3.45812 20.7625 3.43843 20.2563 3.43843 15.9875C3.43843 11.7125 3.45812 11.2063 3.53687 9.525C3.60906 7.9625 3.88468 7.11875 4.11437 6.55625C4.41624 5.8125 4.78374 5.275 5.36781 4.71875C5.95843 4.15625 6.51624 3.8125 7.29718 3.525C7.88781 3.30625 8.78031 3.04375 10.4144 2.975C12.1797 2.9 12.7112 2.88125 17.2 2.88125ZM17.2 0C12.6391 0 12.0681 0.01875 10.2766 0.09375C8.49156 0.16875 7.26437 0.44375 6.20124 0.8375C5.09218 1.25 4.15374 1.79375 3.22187 2.6875C2.28343 3.575 1.71249 4.46875 1.27937 5.51875C0.865931 6.5375 0.577181 7.7 0.498431 9.4C0.419681 11.1125 0.399994 11.6562 0.399994 16C0.399994 20.3438 0.419681 20.8875 0.498431 22.5938C0.577181 24.2938 0.865931 25.4625 1.27937 26.475C1.71249 27.5313 2.28343 28.425 3.22187 29.3125C4.15374 30.2 5.09218 30.75 6.19468 31.1562C7.26437 31.55 8.48499 31.825 10.27 31.9C12.0616 31.975 12.6325 31.9937 17.1934 31.9937C21.7544 31.9937 22.3253 31.975 24.1169 31.9C25.9019 31.825 27.1291 31.55 28.1922 31.1562C29.2947 30.75 30.2331 30.2 31.165 29.3125C32.0969 28.425 32.6744 27.5313 33.1009 26.4813C33.5144 25.4625 33.8031 24.3 33.8819 22.6C33.9606 20.8938 33.9803 20.35 33.9803 16.0063C33.9803 11.6625 33.9606 11.1188 33.8819 9.4125C33.8031 7.7125 33.5144 6.54375 33.1009 5.53125C32.6875 4.46875 32.1166 3.575 31.1781 2.6875C30.2462 1.8 29.3078 1.25 28.2053 0.84375C27.1356 0.45 25.915 0.175 24.13 0.1C22.3319 0.01875 21.7609 0 17.2 0Z" fill="#525252"/>
<path d="M17.2 7.78125C12.4356 7.78125 8.57031 11.4625 8.57031 16C8.57031 20.5375 12.4356 24.2188 17.2 24.2188C21.9644 24.2188 25.8297 20.5375 25.8297 16C25.8297 11.4625 21.9644 7.78125 17.2 7.78125ZM17.2 21.3312C14.1091 21.3312 11.6022 18.9438 11.6022 16C11.6022 13.0563 14.1091 10.6687 17.2 10.6687C20.2909 10.6687 22.7978 13.0563 22.7978 16C22.7978 18.9438 20.2909 21.3312 17.2 21.3312Z" fill="#525252"/>
<path d="M28.1856 7.45623C28.1856 8.51873 27.28 9.37498 26.1709 9.37498C25.0553 9.37498 24.1562 8.51248 24.1562 7.45623C24.1562 6.39373 25.0619 5.53748 26.1709 5.53748C27.28 5.53748 28.1856 6.39998 28.1856 7.45623Z" fill="#525252"/>
</g>
<defs>
<clipPath id="clip0_0_54">
<rect width="33.6" height="32" fill="white" transform="translate(0.399994)"/>
</clipPath>
</defs>
</svg>
