<svg width="33" height="32" viewBox="0 0 33 32" fill="none" xmlns="http://www.w3.org/2000/svg">
<g clip-path="url(#clip0_0_55)">
<path fill-rule="evenodd" clip-rule="evenodd" d="M32.2 16C32.2 24.8366 25.0366 32 16.2 32C7.36346 32 0.200012 24.8366 0.200012 16C0.200012 7.16344 7.36346 0 16.2 0C25.0366 0 32.2 7.16344 32.2 16ZM16.7734 11.8119C15.2171 12.4592 12.1069 13.7989 7.44254 15.8311C6.68512 16.1323 6.28836 16.427 6.25224 16.7151C6.19119 17.202 6.80096 17.3937 7.63131 17.6548C7.74426 17.6903 7.86129 17.7271 7.98126 17.7661C8.79819 18.0317 9.89711 18.3424 10.4684 18.3547C10.9866 18.3659 11.565 18.1523 12.2035 17.7138C16.5616 14.772 18.8112 13.2851 18.9524 13.253C19.0521 13.2304 19.1901 13.202 19.2837 13.2851C19.3773 13.3683 19.3681 13.5258 19.3581 13.568C19.2977 13.8255 16.9042 16.0508 15.6655 17.2024C15.2793 17.5614 15.0054 17.816 14.9495 17.8742C14.824 18.0045 14.6962 18.1277 14.5733 18.2461C13.8144 18.9778 13.2452 19.5264 14.6048 20.4224C15.2582 20.8529 15.781 21.209 16.3026 21.5642C16.8722 21.9521 17.4404 22.339 18.1755 22.8209C18.3628 22.9437 18.5416 23.0712 18.7159 23.1954C19.3788 23.668 19.9743 24.0926 20.7101 24.0248C21.1377 23.9855 21.5793 23.5835 21.8036 22.3845C22.3336 19.5509 23.3755 13.4113 23.6163 10.8813C23.6374 10.6596 23.6109 10.376 23.5896 10.2514C23.5682 10.1269 23.5237 9.94948 23.3618 9.81813C23.1701 9.66258 22.8742 9.62978 22.7418 9.63211C22.14 9.64271 21.2168 9.96376 16.7734 11.8119Z" fill="#525252"/>
</g>
<defs>
<clipPath id="clip0_0_55">
<rect width="32" height="32" fill="white" transform="translate(0.200012)"/>
</clipPath>
</defs>
</svg>
