<svg width="116" height="43" viewBox="0 0 116 43" fill="none" xmlns="http://www.w3.org/2000/svg">
<path d="M12.4961 20.873C12.4961 20.4629 12.4323 20.0983 12.3047 19.7793C12.1862 19.4603 11.972 19.1686 11.6621 18.9043C11.3522 18.64 10.9147 18.3848 10.3496 18.1387C9.79362 17.8835 9.08268 17.6237 8.2168 17.3594C7.26888 17.0677 6.39388 16.7441 5.5918 16.3887C4.79883 16.0241 4.10612 15.6048 3.51367 15.1309C2.92122 14.6478 2.46094 14.0964 2.13281 13.4766C1.80469 12.8477 1.64062 12.123 1.64062 11.3027C1.64062 10.4915 1.80924 9.75326 2.14648 9.08789C2.49284 8.42253 2.98047 7.84831 3.60938 7.36523C4.2474 6.87305 4.99935 6.49479 5.86523 6.23047C6.73112 5.95703 7.68815 5.82031 8.73633 5.82031C10.2129 5.82031 11.4844 6.09375 12.5508 6.64062C13.6263 7.1875 14.4512 7.92122 15.0254 8.8418C15.6087 9.76237 15.9004 10.7786 15.9004 11.8906H12.4961C12.4961 11.2344 12.3548 10.6556 12.0723 10.1543C11.7988 9.64388 11.3796 9.24284 10.8145 8.95117C10.2585 8.65951 9.55208 8.51367 8.69531 8.51367C7.88411 8.51367 7.20964 8.63672 6.67188 8.88281C6.13411 9.12891 5.73307 9.46159 5.46875 9.88086C5.20443 10.3001 5.07227 10.7741 5.07227 11.3027C5.07227 11.6764 5.15885 12.0182 5.33203 12.3281C5.50521 12.6289 5.76953 12.9115 6.125 13.1758C6.48047 13.431 6.92708 13.6725 7.46484 13.9004C8.0026 14.1283 8.63607 14.347 9.36523 14.5566C10.4681 14.8848 11.4297 15.2493 12.25 15.6504C13.0703 16.0423 13.7539 16.4889 14.3008 16.9902C14.8477 17.4915 15.2578 18.0612 15.5312 18.6992C15.8047 19.3281 15.9414 20.0436 15.9414 20.8457C15.9414 21.6842 15.7728 22.4408 15.4355 23.1152C15.0983 23.7806 14.6152 24.3503 13.9863 24.8242C13.3665 25.2891 12.6191 25.6491 11.7441 25.9043C10.8783 26.1504 9.91211 26.2734 8.8457 26.2734C7.88867 26.2734 6.94531 26.1458 6.01562 25.8906C5.09505 25.6354 4.25651 25.248 3.5 24.7285C2.74349 24.1999 2.14193 23.5436 1.69531 22.7598C1.2487 21.9668 1.02539 21.0417 1.02539 19.9844H4.45703C4.45703 20.6315 4.56641 21.1829 4.78516 21.6387C5.01302 22.0944 5.32747 22.4681 5.72852 22.7598C6.12956 23.0423 6.5944 23.252 7.12305 23.3887C7.66081 23.5254 8.23503 23.5938 8.8457 23.5938C9.64779 23.5938 10.3177 23.4798 10.8555 23.252C11.4023 23.0241 11.8125 22.7051 12.0859 22.2949C12.3594 21.8848 12.4961 21.4108 12.4961 20.873ZM32.0053 23.2793V26H22.0112V23.2793H32.0053ZM22.9682 6.09375V26H19.5366V6.09375H22.9682ZM50.1884 15.5V16.5938C50.1884 18.0977 49.9924 19.4466 49.6005 20.6406C49.2085 21.8346 48.648 22.8509 47.9188 23.6895C47.1988 24.528 46.3329 25.1706 45.3212 25.6172C44.3095 26.0547 43.1884 26.2734 41.9579 26.2734C40.7365 26.2734 39.62 26.0547 38.6083 25.6172C37.6057 25.1706 36.7352 24.528 35.997 23.6895C35.2587 22.8509 34.6845 21.8346 34.2743 20.6406C33.8733 19.4466 33.6727 18.0977 33.6727 16.5938V15.5C33.6727 13.9961 33.8733 12.6517 34.2743 11.4668C34.6753 10.2728 35.2404 9.25651 35.9696 8.41797C36.7079 7.57031 37.5783 6.92773 38.5809 6.49023C39.5927 6.04362 40.7092 5.82031 41.9305 5.82031C43.161 5.82031 44.2821 6.04362 45.2938 6.49023C46.3055 6.92773 47.176 7.57031 47.9052 8.41797C48.6343 9.25651 49.1949 10.2728 49.5868 11.4668C49.9878 12.6517 50.1884 13.9961 50.1884 15.5ZM46.7567 16.5938V15.4727C46.7567 14.3607 46.6473 13.3809 46.4286 12.5332C46.219 11.6764 45.9045 10.9609 45.4852 10.3867C45.0751 9.80339 44.5692 9.36589 43.9677 9.07422C43.3661 8.77344 42.6871 8.62305 41.9305 8.62305C41.174 8.62305 40.4996 8.77344 39.9071 9.07422C39.3147 9.36589 38.8088 9.80339 38.3895 10.3867C37.9794 10.9609 37.6649 11.6764 37.4462 12.5332C37.2274 13.3809 37.118 14.3607 37.118 15.4727V16.5938C37.118 17.7057 37.2274 18.6901 37.4462 19.5469C37.6649 20.4036 37.9839 21.1283 38.4032 21.7207C38.8316 22.304 39.342 22.7461 39.9345 23.0469C40.5269 23.3385 41.2014 23.4844 41.9579 23.4844C42.7235 23.4844 43.4026 23.3385 43.995 23.0469C44.5874 22.7461 45.0887 22.304 45.4989 21.7207C45.9091 21.1283 46.219 20.4036 46.4286 19.5469C46.6473 18.6901 46.7567 17.7057 46.7567 16.5938ZM69.971 6.09375V26H66.5394L57.6116 11.7402V26H54.18V6.09375H57.6116L66.5667 20.3809V6.09375H69.971Z" fill="black"/>
<path d="M85.7888 6.09375H89.2068V19.3965C89.2068 20.9095 88.8787 22.1764 88.2224 23.1973C87.5662 24.2181 86.6729 24.9883 85.5427 25.5078C84.4216 26.0182 83.1684 26.2734 81.783 26.2734C80.352 26.2734 79.0759 26.0182 77.9548 25.5078C76.8337 24.9883 75.9496 24.2181 75.3025 23.1973C74.6645 22.1764 74.3455 20.9095 74.3455 19.3965V6.09375H77.7634V19.3965C77.7634 20.3535 77.9275 21.1419 78.2556 21.7617C78.5837 22.3724 79.0486 22.8236 79.6502 23.1152C80.2517 23.4069 80.9627 23.5527 81.783 23.5527C82.6033 23.5527 83.3097 23.4069 83.9021 23.1152C84.5037 22.8236 84.9685 22.3724 85.2966 21.7617C85.6248 21.1419 85.7888 20.3535 85.7888 19.3965V6.09375ZM94.8938 6.09375H97.9563L103.712 21.4473L109.454 6.09375H112.517L104.915 26H102.482L94.8938 6.09375ZM93.4992 6.09375H96.4113L96.9172 19.3828V26H93.4992V6.09375ZM110.999 6.09375H113.925V26H110.493V19.3828L110.999 6.09375Z" fill="#689F38"/>
<path d="M4.42188 38.0781L6.71875 30.5469H8.73438L5.34375 40.2891C5.26562 40.4974 5.16406 40.724 5.03906 40.9688C4.91406 41.2135 4.75 41.4453 4.54688 41.6641C4.34896 41.888 4.10156 42.0677 3.80469 42.2031C3.50781 42.3438 3.14844 42.4141 2.72656 42.4141C2.5599 42.4141 2.39844 42.3984 2.24219 42.3672C2.09115 42.3411 1.94792 42.3125 1.8125 42.2812L1.80469 40.8438C1.85677 40.849 1.91927 40.8542 1.99219 40.8594C2.07031 40.8646 2.13281 40.8672 2.17969 40.8672C2.49219 40.8672 2.7526 40.8281 2.96094 40.75C3.16927 40.6771 3.33854 40.5573 3.46875 40.3906C3.60417 40.224 3.71875 40 3.8125 39.7188L4.42188 38.0781ZM3.125 30.5469L5.13281 36.875L5.46875 38.8594L4.16406 39.1953L1.09375 30.5469H3.125ZM16.8416 30.5469V39H14.9587V30.5469H16.8416ZM16.0447 34.2891V35.7812C15.8155 35.8802 15.5577 35.9714 15.2712 36.0547C14.99 36.1328 14.6931 36.1979 14.3806 36.25C14.0681 36.2969 13.753 36.3203 13.4353 36.3203C12.6905 36.3203 12.0473 36.2057 11.5056 35.9766C10.9692 35.7474 10.5551 35.3958 10.2634 34.9219C9.97698 34.4427 9.83375 33.8359 9.83375 33.1016V30.5391H11.7087V33.1016C11.7087 33.5234 11.7712 33.8594 11.8962 34.1094C12.0265 34.3594 12.2192 34.5391 12.4744 34.6484C12.7296 34.7578 13.0499 34.8125 13.4353 34.8125C13.7582 34.8125 14.0629 34.7917 14.3494 34.75C14.6358 34.7031 14.9197 34.6406 15.2009 34.5625C15.4822 34.4844 15.7634 34.3932 16.0447 34.2891ZM21.0347 36.25L24.355 30.5469H26.2378V39H24.355V33.2891L21.0347 39H19.1519V30.5469H21.0347V36.25ZM31.9231 37.6562C32.2304 37.6562 32.5065 37.5964 32.7512 37.4766C33.0012 37.3516 33.2018 37.1797 33.3528 36.9609C33.5091 36.7422 33.595 36.4896 33.6106 36.2031H35.3841C35.3736 36.75 35.2122 37.2474 34.8997 37.6953C34.5872 38.1432 34.1731 38.5 33.6575 38.7656C33.1419 39.026 32.5716 39.1562 31.9466 39.1562C31.3007 39.1562 30.7382 39.0469 30.2591 38.8281C29.7799 38.6042 29.3815 38.2969 29.0637 37.9062C28.746 37.5156 28.5065 37.0651 28.345 36.5547C28.1887 36.0443 28.1106 35.4974 28.1106 34.9141V34.6406C28.1106 34.0573 28.1887 33.5104 28.345 33C28.5065 32.4844 28.746 32.0312 29.0637 31.6406C29.3815 31.25 29.7799 30.9453 30.2591 30.7266C30.7382 30.5026 31.2981 30.3906 31.9387 30.3906C32.6158 30.3906 33.2096 30.526 33.72 30.7969C34.2304 31.0625 34.6315 31.4349 34.9231 31.9141C35.22 32.388 35.3736 32.9401 35.3841 33.5703H33.6106C33.595 33.2578 33.5169 32.9766 33.3762 32.7266C33.2408 32.4714 33.0481 32.2682 32.7981 32.1172C32.5533 31.9661 32.2591 31.8906 31.9153 31.8906C31.5351 31.8906 31.22 31.9688 30.97 32.125C30.72 32.276 30.5247 32.4844 30.3841 32.75C30.2434 33.0104 30.1419 33.3047 30.0794 33.6328C30.0221 33.9557 29.9934 34.2917 29.9934 34.6406V34.9141C29.9934 35.263 30.0221 35.6016 30.0794 35.9297C30.1367 36.2578 30.2356 36.5521 30.3762 36.8125C30.5221 37.0677 30.72 37.2734 30.97 37.4297C31.22 37.5807 31.5377 37.6562 31.9231 37.6562ZM38.4678 33.2344H40.96C41.6892 33.2344 42.309 33.3568 42.8194 33.6016C43.3298 33.8464 43.7178 34.1875 43.9834 34.625C44.2543 35.0573 44.3897 35.5521 44.3897 36.1094C44.3897 36.5208 44.3142 36.9036 44.1631 37.2578C44.0121 37.6068 43.7881 37.9115 43.4912 38.1719C43.1996 38.4323 42.8402 38.6354 42.4131 38.7812C41.9912 38.9271 41.5069 39 40.96 39H37.2178V30.5469H39.1084V37.5078H40.96C41.335 37.5078 41.6345 37.4427 41.8584 37.3125C42.0824 37.1823 42.2439 37.013 42.3428 36.8047C42.447 36.5964 42.4991 36.375 42.4991 36.1406C42.4991 35.901 42.447 35.6745 42.3428 35.4609C42.2439 35.2474 42.0824 35.0729 41.8584 34.9375C41.6345 34.8021 41.335 34.7344 40.96 34.7344H38.4678V33.2344ZM52.3072 36.25L55.6275 30.5469H57.5103V39H55.6275V33.2891L52.3072 39H50.4244V30.5469H52.3072V36.25ZM65.3675 30.5469V32.0469H61.68V39H59.7972V30.5469H65.3675ZM68.5919 32.1719V42.25H66.7091V30.5469H68.4434L68.5919 32.1719ZM74.0997 34.6953V34.8594C74.0997 35.474 74.0268 36.0443 73.8809 36.5703C73.7403 37.0911 73.5294 37.5469 73.2481 37.9375C72.9721 38.3229 72.6309 38.6224 72.2247 38.8359C71.8184 39.0495 71.3497 39.1562 70.8184 39.1562C70.2924 39.1562 69.8315 39.0599 69.4356 38.8672C69.045 38.6693 68.7143 38.3906 68.4434 38.0312C68.1726 37.6719 67.9539 37.25 67.7872 36.7656C67.6257 36.276 67.5111 35.7396 67.4434 35.1562V34.5234C67.5111 33.9036 67.6257 33.3411 67.7872 32.8359C67.9539 32.3307 68.1726 31.8958 68.4434 31.5312C68.7143 31.1667 69.045 30.8854 69.4356 30.6875C69.8262 30.4896 70.282 30.3906 70.8028 30.3906C71.3341 30.3906 71.8054 30.4948 72.2169 30.7031C72.6283 30.9062 72.9747 31.1979 73.2559 31.5781C73.5372 31.9531 73.7481 32.4062 73.8887 32.9375C74.0294 33.4635 74.0997 34.0495 74.0997 34.6953ZM72.2169 34.8594V34.6953C72.2169 34.3047 72.1804 33.9427 72.1075 33.6094C72.0346 33.2708 71.92 32.974 71.7637 32.7188C71.6075 32.4635 71.407 32.2656 71.1622 32.125C70.9226 31.9792 70.6335 31.9062 70.295 31.9062C69.9617 31.9062 69.6752 31.9635 69.4356 32.0781C69.196 32.1875 68.9955 32.3411 68.8341 32.5391C68.6726 32.737 68.5476 32.9688 68.4591 33.2344C68.3705 33.4948 68.308 33.7786 68.2716 34.0859V35.6016C68.3341 35.9766 68.4408 36.3203 68.5919 36.6328C68.7429 36.9453 68.9565 37.1953 69.2325 37.3828C69.5137 37.5651 69.8731 37.6562 70.3106 37.6562C70.6492 37.6562 70.9382 37.5833 71.1778 37.4375C71.4174 37.2917 71.6127 37.0911 71.7637 36.8359C71.92 36.5755 72.0346 36.276 72.1075 35.9375C72.1804 35.599 72.2169 35.2396 72.2169 34.8594ZM80.7069 37.3047V33.2734C80.7069 32.9714 80.6522 32.7109 80.5428 32.4922C80.4334 32.2734 80.2668 32.1042 80.0428 31.9844C79.8241 31.8646 79.548 31.8047 79.2147 31.8047C78.9074 31.8047 78.6418 31.8568 78.4178 31.9609C78.1939 32.0651 78.0194 32.2057 77.8944 32.3828C77.7694 32.5599 77.7069 32.7604 77.7069 32.9844H75.8319C75.8319 32.651 75.9126 32.3281 76.0741 32.0156C76.2355 31.7031 76.4699 31.4245 76.7772 31.1797C77.0845 30.9349 77.4517 30.7422 77.8788 30.6016C78.3058 30.4609 78.785 30.3906 79.3163 30.3906C79.9517 30.3906 80.5142 30.4974 81.0038 30.7109C81.4985 30.9245 81.8866 31.2474 82.1678 31.6797C82.4543 32.1068 82.5975 32.6432 82.5975 33.2891V37.0469C82.5975 37.4323 82.6235 37.7786 82.6756 38.0859C82.7329 38.388 82.8136 38.651 82.9178 38.875V39H80.9881C80.8996 38.7969 80.8293 38.5391 80.7772 38.2266C80.7303 37.9089 80.7069 37.6016 80.7069 37.3047ZM80.9803 33.8594L80.9959 35.0234H79.6444C79.2954 35.0234 78.9881 35.0573 78.7225 35.125C78.4569 35.1875 78.2355 35.2812 78.0584 35.4062C77.8814 35.5312 77.7485 35.6823 77.66 35.8594C77.5715 36.0365 77.5272 36.237 77.5272 36.4609C77.5272 36.6849 77.5793 36.8906 77.6834 37.0781C77.7876 37.2604 77.9386 37.4036 78.1366 37.5078C78.3397 37.612 78.5845 37.6641 78.8709 37.6641C79.2564 37.6641 79.5923 37.5859 79.8788 37.4297C80.1704 37.2682 80.3996 37.0729 80.5663 36.8438C80.7329 36.6094 80.8215 36.388 80.8319 36.1797L81.4413 37.0156C81.3788 37.2292 81.272 37.4583 81.1209 37.7031C80.9699 37.9479 80.772 38.1823 80.5272 38.4062C80.2876 38.625 79.9985 38.8047 79.66 38.9453C79.3267 39.0859 78.9413 39.1562 78.5038 39.1562C77.9517 39.1562 77.4595 39.0469 77.0272 38.8281C76.5949 38.6042 76.2564 38.3047 76.0116 37.9297C75.7668 37.5495 75.6444 37.1198 75.6444 36.6406C75.6444 36.1927 75.7277 35.7969 75.8944 35.4531C76.0663 35.1042 76.3163 34.8125 76.6444 34.5781C76.9777 34.3438 77.384 34.1667 77.8631 34.0469C78.3423 33.9219 78.8892 33.8594 79.5038 33.8594H80.9803ZM89.7828 33.9609V35.4609H85.2516V33.9609H89.7828ZM86.8609 30.5469V39H84.9781V30.5469H86.8609ZM88.3922 34.8672V34.6875C88.3922 34.0781 88.4807 33.513 88.6578 32.9922C88.8349 32.4661 89.0927 32.0104 89.4313 31.625C89.7698 31.2344 90.1813 30.9323 90.6656 30.7188C91.15 30.5 91.6995 30.3906 92.3141 30.3906C92.9391 30.3906 93.4938 30.5 93.9781 30.7188C94.4677 30.9323 94.8818 31.2344 95.2203 31.625C95.5589 32.0104 95.8167 32.4661 95.9938 32.9922C96.1708 33.513 96.2594 34.0781 96.2594 34.6875V34.8672C96.2594 35.4766 96.1708 36.0417 95.9938 36.5625C95.8167 37.0833 95.5589 37.5391 95.2203 37.9297C94.887 38.3151 94.4755 38.6172 93.9859 38.8359C93.5016 39.0495 92.9495 39.1562 92.3297 39.1562C91.7099 39.1562 91.1578 39.0495 90.6734 38.8359C90.1891 38.6172 89.775 38.3151 89.4313 37.9297C89.0927 37.5391 88.8349 37.0833 88.6578 36.5625C88.4807 36.0417 88.3922 35.4766 88.3922 34.8672ZM90.2828 34.6875V34.8672C90.2828 35.2474 90.3219 35.6068 90.4 35.9453C90.4781 36.2839 90.6005 36.5807 90.7672 36.8359C90.9339 37.0911 91.1474 37.2917 91.4078 37.4375C91.6682 37.5833 91.9755 37.6562 92.3297 37.6562C92.6839 37.6562 92.9885 37.5833 93.2438 37.4375C93.5042 37.2917 93.7177 37.0911 93.8844 36.8359C94.051 36.5807 94.1734 36.2839 94.2516 35.9453C94.3349 35.6068 94.3766 35.2474 94.3766 34.8672V34.6875C94.3766 34.3125 94.3349 33.9583 94.2516 33.625C94.1734 33.2865 94.051 32.987 93.8844 32.7266C93.7177 32.4661 93.5042 32.263 93.2438 32.1172C92.9833 31.9661 92.6734 31.8906 92.3141 31.8906C91.9651 31.8906 91.6604 31.9661 91.4 32.1172C91.1448 32.263 90.9339 32.4661 90.7672 32.7266C90.6005 32.987 90.4781 33.2865 90.4 33.625C90.3219 33.9583 90.2828 34.3125 90.2828 34.6875ZM104.851 30.5469V39H102.968V30.5469H104.851ZM104.054 34.2891V35.7812C103.825 35.8802 103.567 35.9714 103.281 36.0547C102.999 36.1328 102.702 36.1979 102.39 36.25C102.077 36.2969 101.762 36.3203 101.445 36.3203C100.7 36.3203 100.057 36.2057 99.515 35.9766C98.9785 35.7474 98.5645 35.3958 98.2728 34.9219C97.9864 34.4427 97.8431 33.8359 97.8431 33.1016V30.5391H99.7181V33.1016C99.7181 33.5234 99.7806 33.8594 99.9056 34.1094C100.036 34.3594 100.229 34.5391 100.484 34.6484C100.739 34.7578 101.059 34.8125 101.445 34.8125C101.768 34.8125 102.072 34.7917 102.359 34.75C102.645 34.7031 102.929 34.6406 103.21 34.5625C103.492 34.4844 103.773 34.3932 104.054 34.2891ZM109.044 36.25L112.364 30.5469H114.247V39H112.364V33.2891L109.044 39H107.161V30.5469H109.044V36.25Z" fill="#689F38"/>
</svg>
